<?xml version="1.0" encoding="UTF-8" standalone="no"?>
<!-- Created with Inkscape (http://www.inkscape.org/) -->

<svg
   xmlns:dc="http://purl.org/dc/elements/1.1/"
   xmlns:cc="http://creativecommons.org/ns#"
   xmlns:rdf="http://www.w3.org/1999/02/22-rdf-syntax-ns#"
   xmlns:svg="http://www.w3.org/2000/svg"
   xmlns="http://www.w3.org/2000/svg"
   xmlns:sodipodi="http://sodipodi.sourceforge.net/DTD/sodipodi-0.dtd"
   xmlns:inkscape="http://www.inkscape.org/namespaces/inkscape"
   inkscape:version="0.48.2 r9819"
   version="1.1"
   id="svg2"
   height="765"
   width="990"
   sodipodi:docname="CalibrationBoard-1.svg">
  <sodipodi:namedview
     id="base"
     pagecolor="#ffffff"
     bordercolor="#666666"
     borderopacity="1.0"
     inkscape:pageopacity="0"
     inkscape:pageshadow="2"
     inkscape:zoom="1.0556063"
     inkscape:cx="402.45418"
     inkscape:cy="388.25078"
     inkscape:document-units="px"
     inkscape:current-layer="layer1"
     showgrid="false"
     units="mm"
     inkscape:window-width="1920"
     inkscape:window-height="1058"
     inkscape:window-x="1912"
     inkscape:window-y="-8"
     inkscape:window-maximized="1" />
  <defs
     id="defs4">
    <marker
       style="overflow:visible"
       id="Arrow1Mstart"
       refX="0.0"
       refY="0.0"
       orient="auto"
       inkscape:stockid="Arrow1Mstart">
      <path
         transform="scale(0.4) translate(10,0)"
         style="fill-rule:evenodd;stroke:#000000;stroke-width:1.0pt"
         d="M 0.0,0.0 L 5.0,-5.0 L -12.5,0.0 L 5.0,5.0 L 0.0,0.0 z "
         id="path4084" />
    </marker>
    <marker
       inkscape:stockid="Arrow2Lstart"
       orient="auto"
       refY="0.0"
       refX="0.0"
       id="Arrow2Lstart"
       style="overflow:visible">
      <path
         id="path4096"
         style="fill-rule:evenodd;stroke-width:0.62500000;stroke-linejoin:round"
         d="M 8.7185878,4.0337352 L -2.2072895,0.016013256 L 8.7185884,-4.0017078 C 6.9730900,-1.6296469 6.9831476,1.6157441 8.7185878,4.0337352 z "
         transform="scale(1.1) translate(1,0)" />
    </marker>
    <marker
       inkscape:stockid="Arrow1Lstart"
       orient="auto"
       refY="0.0"
       refX="0.0"
       id="Arrow1Lstart"
       style="overflow:visible">
      <path
         id="path4078"
         d="M 0.0,0.0 L 5.0,-5.0 L -12.5,0.0 L 5.0,5.0 L 0.0,0.0 z "
         style="fill-rule:evenodd;stroke:#000000;stroke-width:1.0pt"
         transform="scale(0.8) translate(12.5,0)" />
    </marker>
    <marker
       inkscape:stockid="Arrow2Lstartp"
       orient="auto"
       refY="0.0"
       refX="0.0"
       id="Arrow2Lstartp"
       style="overflow:visible">
      <path
         id="path4893"
         style="stroke-linejoin:round;stroke:#ffffff;stroke-width:0.62500000;fill:#ffffff;fill-rule:evenodd"
         d="M 8.7185878,4.0337352 L -2.2072895,0.016013256 L 8.7185884,-4.0017078 C 6.9730900,-1.6296469 6.9831476,1.6157441 8.7185878,4.0337352 z "
         transform="scale(1.1) translate(1,0)" />
    </marker>
    <marker
       style="overflow:visible"
       id="Arrow1Mstarta"
       refX="0.0"
       refY="0.0"
       orient="auto"
       inkscape:stockid="Arrow1Mstarta">
      <path
         transform="scale(0.4) translate(10,0)"
         style="stroke:#ffffff;stroke-width:1.0pt;fill:#ffffff;fill-rule:evenodd"
         d="M 0.0,0.0 L 5.0,-5.0 L -12.5,0.0 L 5.0,5.0 L 0.0,0.0 z "
         id="path5395" />
    </marker>
  </defs>
  <metadata
     id="metadata7">
    <rdf:RDF>
      <cc:Work
         rdf:about="">
        <dc:format>image/svg+xml</dc:format>
        <dc:type
           rdf:resource="http://purl.org/dc/dcmitype/StillImage" />
        <dc:title />
      </cc:Work>
    </rdf:RDF>
  </metadata>
  <g
     id="g4871"
     transform="translate(114.09449,-107.8937)" />
  <g
     inkscape:groupmode="layer"
     id="layer2"
     inkscape:label="Background"
     sodipodi:insensitive="true"
     style="display:inline">
    <rect
       style="fill:#000000;fill-opacity:1;stroke:#000000;stroke-width:0.99651408"
       id="rect3797"
       width="989.00348"
       height="764.00348"
       x="0.49825704"
       y="0.49826396" />
  </g>
  <g
     inkscape:label="Circles"
     inkscape:groupmode="layer"
     id="layer1"
     transform="translate(0,-287.35978)"
     sodipodi:insensitive="true">
    <g
       id="g3306"
       transform="translate(475.95433,-368.76931)">
      <path
         sodipodi:type="arc"
         style="fill:#ffffff;stroke:#ffffff"
         id="path4621-5-2"
         sodipodi:cx="115.66247"
         sodipodi:cy="107.89577"
         sodipodi:rx="40.911179"
         sodipodi:ry="36.870567"
         d="m 156.57365,107.89577 a 40.911179,36.870567 0 1 1 -81.822361,0 40.911179,36.870567 0 1 1 81.822361,0 z"
         transform="matrix(0.03096071,0,0,-0.03435366,-2.2996186,1054.785)" />
      <path
         sodipodi:type="arc"
         style="fill:#ffffff;stroke:#ffffff"
         id="path4621-5-2-7"
         sodipodi:cx="115.66247"
         sodipodi:cy="107.89577"
         sodipodi:rx="40.911179"
         sodipodi:ry="36.870567"
         d="m 156.57365,107.89577 a 40.911179,36.870567 0 1 1 -81.822361,0 40.911179,36.870567 0 1 1 81.822361,0 z"
         transform="matrix(0.03096071,0,0,-0.03435366,4.8347612,1054.7373)" />
      <path
         sodipodi:type="arc"
         style="fill:#ffffff;stroke:#ffffff"
         id="path4621-5-2-7-4"
         sodipodi:cx="115.66247"
         sodipodi:cy="107.89577"
         sodipodi:rx="40.911179"
         sodipodi:ry="36.870567"
         d="m 156.57365,107.89577 a 40.911179,36.870567 0 1 1 -81.822361,0 40.911179,36.870567 0 1 1 81.822361,0 z"
         transform="matrix(0.03096071,0,0,-0.03435366,11.921375,1054.7373)" />
      <path
         sodipodi:type="arc"
         style="fill:#ffffff;stroke:#ffffff"
         id="path4621-5-2-7-0"
         sodipodi:cx="115.66247"
         sodipodi:cy="107.89577"
         sodipodi:rx="40.911179"
         sodipodi:ry="36.870567"
         d="m 156.57365,107.89577 a 40.911179,36.870567 0 1 1 -81.822361,0 40.911179,36.870567 0 1 1 81.822361,0 z"
         transform="matrix(0.03096071,0,0,-0.03435366,19.00799,1054.7373)" />
      <path
         sodipodi:type="arc"
         style="fill:#ffffff;stroke:#ffffff"
         id="path4621-5-2-7-9"
         sodipodi:cx="115.66247"
         sodipodi:cy="107.89577"
         sodipodi:rx="40.911179"
         sodipodi:ry="36.870567"
         d="m 156.57365,107.89577 a 40.911179,36.870567 0 1 1 -81.822361,0 40.911179,36.870567 0 1 1 81.822361,0 z"
         transform="matrix(0.03096071,0,0,-0.03435366,26.094604,1054.7373)" />
      <path
         sodipodi:type="arc"
         style="fill:#ffffff;stroke:#ffffff"
         id="path4621-5-2-7-48"
         sodipodi:cx="115.66247"
         sodipodi:cy="107.89577"
         sodipodi:rx="40.911179"
         sodipodi:ry="36.870567"
         d="m 156.57365,107.89577 a 40.911179,36.870567 0 1 1 -81.822361,0 40.911179,36.870567 0 1 1 81.822361,0 z"
         transform="matrix(0.03096071,0,0,-0.03435366,33.181218,1054.7373)" />
      <path
         sodipodi:type="arc"
         style="fill:#ffffff;stroke:#ffffff"
         id="path4621-5-2-8"
         sodipodi:cx="115.66247"
         sodipodi:cy="107.89577"
         sodipodi:rx="40.911179"
         sodipodi:ry="36.870567"
         d="m 156.57365,107.89577 a 40.911179,36.870567 0 1 1 -81.822361,0 40.911179,36.870567 0 1 1 81.822361,0 z"
         transform="matrix(0.03096071,0,0,-0.03435366,-2.251853,1047.6506)" />
      <path
         sodipodi:type="arc"
         style="fill:#ffffff;stroke:#ffffff"
         id="path4621-5-2-7-2"
         sodipodi:cx="115.66247"
         sodipodi:cy="107.89577"
         sodipodi:rx="40.911179"
         sodipodi:ry="36.870567"
         d="m 156.57365,107.89577 a 40.911179,36.870567 0 1 1 -81.822361,0 40.911179,36.870567 0 1 1 81.822361,0 z"
         transform="matrix(0.03096071,0,0,-0.03435366,4.8825268,1047.6029)" />
      <path
         sodipodi:type="arc"
         style="fill:#ffffff;stroke:#ffffff"
         id="path4621-5-2-7-4-4"
         sodipodi:cx="115.66247"
         sodipodi:cy="107.89577"
         sodipodi:rx="40.911179"
         sodipodi:ry="36.870567"
         d="m 156.57365,107.89577 a 40.911179,36.870567 0 1 1 -81.822361,0 40.911179,36.870567 0 1 1 81.822361,0 z"
         transform="matrix(0.03096071,0,0,-0.03435366,11.969141,1047.6029)" />
      <path
         sodipodi:type="arc"
         style="fill:#ffffff;stroke:#ffffff"
         id="path4621-5-2-7-0-5"
         sodipodi:cx="115.66247"
         sodipodi:cy="107.89577"
         sodipodi:rx="40.911179"
         sodipodi:ry="36.870567"
         d="m 156.57365,107.89577 a 40.911179,36.870567 0 1 1 -81.822361,0 40.911179,36.870567 0 1 1 81.822361,0 z"
         transform="matrix(0.03096071,0,0,-0.03435366,19.055756,1047.6029)" />
      <path
         sodipodi:type="arc"
         style="fill:#ffffff;stroke:#ffffff"
         id="path4621-5-2-7-9-5"
         sodipodi:cx="115.66247"
         sodipodi:cy="107.89577"
         sodipodi:rx="40.911179"
         sodipodi:ry="36.870567"
         d="m 156.57365,107.89577 a 40.911179,36.870567 0 1 1 -81.822361,0 40.911179,36.870567 0 1 1 81.822361,0 z"
         transform="matrix(0.03096071,0,0,-0.03435366,26.14237,1047.6029)" />
      <path
         sodipodi:type="arc"
         style="fill:#ffffff;stroke:#ffffff"
         id="path4621-5-2-7-48-1"
         sodipodi:cx="115.66247"
         sodipodi:cy="107.89577"
         sodipodi:rx="40.911179"
         sodipodi:ry="36.870567"
         d="m 156.57365,107.89577 a 40.911179,36.870567 0 1 1 -81.822361,0 40.911179,36.870567 0 1 1 81.822361,0 z"
         transform="matrix(0.03096071,0,0,-0.03435366,33.228984,1047.6029)" />
      <path
         sodipodi:type="arc"
         style="fill:#ffffff;stroke:#ffffff"
         id="path4621-5-2-71"
         sodipodi:cx="115.66247"
         sodipodi:cy="107.89577"
         sodipodi:rx="40.911179"
         sodipodi:ry="36.870567"
         d="m 156.57365,107.89577 a 40.911179,36.870567 0 1 1 -81.822361,0 40.911179,36.870567 0 1 1 81.822361,0 z"
         transform="matrix(0.03096071,0,0,-0.03435366,-2.251853,1040.564)" />
      <path
         sodipodi:type="arc"
         style="fill:#ffffff;stroke:#ffffff"
         id="path4621-5-2-7-1"
         sodipodi:cx="115.66247"
         sodipodi:cy="107.89577"
         sodipodi:rx="40.911179"
         sodipodi:ry="36.870567"
         d="m 156.57365,107.89577 a 40.911179,36.870567 0 1 1 -81.822361,0 40.911179,36.870567 0 1 1 81.822361,0 z"
         transform="matrix(0.03096071,0,0,-0.03435366,4.8825271,1040.5163)" />
      <path
         sodipodi:type="arc"
         style="fill:#ffffff;stroke:#ffffff"
         id="path4621-5-2-7-4-5"
         sodipodi:cx="115.66247"
         sodipodi:cy="107.89577"
         sodipodi:rx="40.911179"
         sodipodi:ry="36.870567"
         d="m 156.57365,107.89577 a 40.911179,36.870567 0 1 1 -81.822361,0 40.911179,36.870567 0 1 1 81.822361,0 z"
         transform="matrix(0.03096071,0,0,-0.03435366,11.969141,1040.5163)" />
      <path
         sodipodi:type="arc"
         style="fill:#ffffff;stroke:#ffffff"
         id="path4621-5-2-7-0-2"
         sodipodi:cx="115.66247"
         sodipodi:cy="107.89577"
         sodipodi:rx="40.911179"
         sodipodi:ry="36.870567"
         d="m 156.57365,107.89577 a 40.911179,36.870567 0 1 1 -81.822361,0 40.911179,36.870567 0 1 1 81.822361,0 z"
         transform="matrix(0.03096071,0,0,-0.03435366,19.055756,1040.5163)" />
      <path
         sodipodi:type="arc"
         style="fill:#ffffff;stroke:#ffffff"
         id="path4621-5-2-7-9-7"
         sodipodi:cx="115.66247"
         sodipodi:cy="107.89577"
         sodipodi:rx="40.911179"
         sodipodi:ry="36.870567"
         d="m 156.57365,107.89577 a 40.911179,36.870567 0 1 1 -81.822361,0 40.911179,36.870567 0 1 1 81.822361,0 z"
         transform="matrix(0.03096071,0,0,-0.03435366,26.14237,1040.5163)" />
      <path
         sodipodi:type="arc"
         style="fill:#ffffff;stroke:#ffffff"
         id="path4621-5-2-7-48-6"
         sodipodi:cx="115.66247"
         sodipodi:cy="107.89577"
         sodipodi:rx="40.911179"
         sodipodi:ry="36.870567"
         d="m 156.57365,107.89577 a 40.911179,36.870567 0 1 1 -81.822361,0 40.911179,36.870567 0 1 1 81.822361,0 z"
         transform="matrix(0.03096071,0,0,-0.03435366,33.228984,1040.5163)" />
      <path
         sodipodi:type="arc"
         style="fill:#ffffff;stroke:#ffffff"
         id="path4621-5-2-1"
         sodipodi:cx="115.66247"
         sodipodi:cy="107.89577"
         sodipodi:rx="40.911179"
         sodipodi:ry="36.870567"
         d="m 156.57365,107.89577 a 40.911179,36.870567 0 1 1 -81.822361,0 40.911179,36.870567 0 1 1 81.822361,0 z"
         transform="matrix(0.03096071,0,0,-0.03435366,-2.251853,1033.4774)" />
      <path
         sodipodi:type="arc"
         style="fill:#ffffff;stroke:#ffffff"
         id="path4621-5-2-7-42"
         sodipodi:cx="115.66247"
         sodipodi:cy="107.89577"
         sodipodi:rx="40.911179"
         sodipodi:ry="36.870567"
         d="m 156.57365,107.89577 a 40.911179,36.870567 0 1 1 -81.822361,0 40.911179,36.870567 0 1 1 81.822361,0 z"
         transform="matrix(0.03096071,0,0,-0.03435366,4.8825268,1033.4297)" />
      <path
         sodipodi:type="arc"
         style="fill:#ffffff;stroke:#ffffff"
         id="path4621-5-2-7-4-3"
         sodipodi:cx="115.66247"
         sodipodi:cy="107.89577"
         sodipodi:rx="40.911179"
         sodipodi:ry="36.870567"
         d="m 156.57365,107.89577 a 40.911179,36.870567 0 1 1 -81.822361,0 40.911179,36.870567 0 1 1 81.822361,0 z"
         transform="matrix(0.03096071,0,0,-0.03435366,11.969141,1033.4297)" />
      <path
         sodipodi:type="arc"
         style="fill:#ffffff;stroke:#ffffff"
         id="path4621-5-2-7-0-22"
         sodipodi:cx="115.66247"
         sodipodi:cy="107.89577"
         sodipodi:rx="40.911179"
         sodipodi:ry="36.870567"
         d="m 156.57365,107.89577 a 40.911179,36.870567 0 1 1 -81.822361,0 40.911179,36.870567 0 1 1 81.822361,0 z"
         transform="matrix(0.03096071,0,0,-0.03435366,19.055756,1033.4297)" />
      <path
         sodipodi:type="arc"
         style="fill:#ffffff;stroke:#ffffff"
         id="path4621-5-2-7-9-1"
         sodipodi:cx="115.66247"
         sodipodi:cy="107.89577"
         sodipodi:rx="40.911179"
         sodipodi:ry="36.870567"
         d="m 156.57365,107.89577 a 40.911179,36.870567 0 1 1 -81.822361,0 40.911179,36.870567 0 1 1 81.822361,0 z"
         transform="matrix(0.03096071,0,0,-0.03435366,26.14237,1033.4297)" />
      <path
         sodipodi:type="arc"
         style="fill:#ffffff;stroke:#ffffff"
         id="path4621-5-2-7-48-68"
         sodipodi:cx="115.66247"
         sodipodi:cy="107.89577"
         sodipodi:rx="40.911179"
         sodipodi:ry="36.870567"
         d="m 156.57365,107.89577 a 40.911179,36.870567 0 1 1 -81.822361,0 40.911179,36.870567 0 1 1 81.822361,0 z"
         transform="matrix(0.03096071,0,0,-0.03435366,33.228984,1033.4297)" />
      <path
         sodipodi:type="arc"
         style="fill:#ffffff;stroke:#ffffff"
         id="path4621-5-2-5"
         sodipodi:cx="115.66247"
         sodipodi:cy="107.89577"
         sodipodi:rx="40.911179"
         sodipodi:ry="36.870567"
         d="m 156.57365,107.89577 a 40.911179,36.870567 0 1 1 -81.822361,0 40.911179,36.870567 0 1 1 81.822361,0 z"
         transform="matrix(0.03096071,0,0,-0.03435366,1.2914541,1051.1939)" />
      <path
         sodipodi:type="arc"
         style="fill:#ffffff;stroke:#ffffff"
         id="path4621-5-2-7-7"
         sodipodi:cx="115.66247"
         sodipodi:cy="107.89577"
         sodipodi:rx="40.911179"
         sodipodi:ry="36.870567"
         d="m 156.57365,107.89577 a 40.911179,36.870567 0 1 1 -81.822361,0 40.911179,36.870567 0 1 1 81.822361,0 z"
         transform="matrix(0.03096071,0,0,-0.03435366,8.4258339,1051.1462)" />
      <path
         sodipodi:type="arc"
         style="fill:#ffffff;stroke:#ffffff"
         id="path4621-5-2-7-4-6"
         sodipodi:cx="115.66247"
         sodipodi:cy="107.89577"
         sodipodi:rx="40.911179"
         sodipodi:ry="36.870567"
         d="m 156.57365,107.89577 a 40.911179,36.870567 0 1 1 -81.822361,0 40.911179,36.870567 0 1 1 81.822361,0 z"
         transform="matrix(0.03096071,0,0,-0.03435366,15.512448,1051.1462)" />
      <path
         sodipodi:type="arc"
         style="fill:#ffffff;stroke:#ffffff"
         id="path4621-5-2-7-0-1"
         sodipodi:cx="115.66247"
         sodipodi:cy="107.89577"
         sodipodi:rx="40.911179"
         sodipodi:ry="36.870567"
         d="m 156.57365,107.89577 a 40.911179,36.870567 0 1 1 -81.822361,0 40.911179,36.870567 0 1 1 81.822361,0 z"
         transform="matrix(0.03096071,0,0,-0.03435366,22.599063,1051.1462)" />
      <path
         sodipodi:type="arc"
         style="fill:#ffffff;stroke:#ffffff"
         id="path4621-5-2-7-9-8"
         sodipodi:cx="115.66247"
         sodipodi:cy="107.89577"
         sodipodi:rx="40.911179"
         sodipodi:ry="36.870567"
         d="m 156.57365,107.89577 a 40.911179,36.870567 0 1 1 -81.822361,0 40.911179,36.870567 0 1 1 81.822361,0 z"
         transform="matrix(0.03096071,0,0,-0.03435366,29.685677,1051.1462)" />
      <path
         sodipodi:type="arc"
         style="fill:#ffffff;stroke:#ffffff"
         id="path4621-5-2-9"
         sodipodi:cx="115.66247"
         sodipodi:cy="107.89577"
         sodipodi:rx="40.911179"
         sodipodi:ry="36.870567"
         d="m 156.57365,107.89577 a 40.911179,36.870567 0 1 1 -81.822361,0 40.911179,36.870567 0 1 1 81.822361,0 z"
         transform="matrix(0.03096071,0,0,-0.03435366,1.2914541,1044.1073)" />
      <path
         sodipodi:type="arc"
         style="fill:#ffffff;stroke:#ffffff"
         id="path4621-5-2-7-27"
         sodipodi:cx="115.66247"
         sodipodi:cy="107.89577"
         sodipodi:rx="40.911179"
         sodipodi:ry="36.870567"
         d="m 156.57365,107.89577 a 40.911179,36.870567 0 1 1 -81.822361,0 40.911179,36.870567 0 1 1 81.822361,0 z"
         transform="matrix(0.03096071,0,0,-0.03435366,8.4258343,1044.0596)" />
      <path
         sodipodi:type="arc"
         style="fill:#ffffff;stroke:#ffffff"
         id="path4621-5-2-7-4-9"
         sodipodi:cx="115.66247"
         sodipodi:cy="107.89577"
         sodipodi:rx="40.911179"
         sodipodi:ry="36.870567"
         d="m 156.57365,107.89577 a 40.911179,36.870567 0 1 1 -81.822361,0 40.911179,36.870567 0 1 1 81.822361,0 z"
         transform="matrix(0.03096071,0,0,-0.03435366,15.512448,1044.0596)" />
      <path
         sodipodi:type="arc"
         style="fill:#ffffff;stroke:#ffffff"
         id="path4621-5-2-7-0-54"
         sodipodi:cx="115.66247"
         sodipodi:cy="107.89577"
         sodipodi:rx="40.911179"
         sodipodi:ry="36.870567"
         d="m 156.57365,107.89577 a 40.911179,36.870567 0 1 1 -81.822361,0 40.911179,36.870567 0 1 1 81.822361,0 z"
         transform="matrix(0.03096071,0,0,-0.03435366,22.599063,1044.0596)" />
      <path
         sodipodi:type="arc"
         style="fill:#ffffff;stroke:#ffffff"
         id="path4621-5-2-7-9-3"
         sodipodi:cx="115.66247"
         sodipodi:cy="107.89577"
         sodipodi:rx="40.911179"
         sodipodi:ry="36.870567"
         d="m 156.57365,107.89577 a 40.911179,36.870567 0 1 1 -81.822361,0 40.911179,36.870567 0 1 1 81.822361,0 z"
         transform="matrix(0.03096071,0,0,-0.03435366,29.685677,1044.0596)" />
      <path
         sodipodi:type="arc"
         style="fill:#ffffff;stroke:#ffffff"
         id="path4621-5-2-12"
         sodipodi:cx="115.66247"
         sodipodi:cy="107.89577"
         sodipodi:rx="40.911179"
         sodipodi:ry="36.870567"
         d="m 156.57365,107.89577 a 40.911179,36.870567 0 1 1 -81.822361,0 40.911179,36.870567 0 1 1 81.822361,0 z"
         transform="matrix(0.03096071,0,0,-0.03435366,1.2914541,1037.0207)" />
      <path
         sodipodi:type="arc"
         style="fill:#ffffff;stroke:#ffffff"
         id="path4621-5-2-7-3"
         sodipodi:cx="115.66247"
         sodipodi:cy="107.89577"
         sodipodi:rx="40.911179"
         sodipodi:ry="36.870567"
         d="m 156.57365,107.89577 a 40.911179,36.870567 0 1 1 -81.822361,0 40.911179,36.870567 0 1 1 81.822361,0 z"
         transform="matrix(0.03096071,0,0,-0.03435366,8.4258339,1036.973)" />
      <path
         sodipodi:type="arc"
         style="fill:#ffffff;stroke:#ffffff"
         id="path4621-5-2-7-4-34"
         sodipodi:cx="115.66247"
         sodipodi:cy="107.89577"
         sodipodi:rx="40.911179"
         sodipodi:ry="36.870567"
         d="m 156.57365,107.89577 a 40.911179,36.870567 0 1 1 -81.822361,0 40.911179,36.870567 0 1 1 81.822361,0 z"
         transform="matrix(0.03096071,0,0,-0.03435366,15.512448,1036.973)" />
      <path
         sodipodi:type="arc"
         style="fill:#ffffff;stroke:#ffffff"
         id="path4621-5-2-7-0-11"
         sodipodi:cx="115.66247"
         sodipodi:cy="107.89577"
         sodipodi:rx="40.911179"
         sodipodi:ry="36.870567"
         d="m 156.57365,107.89577 a 40.911179,36.870567 0 1 1 -81.822361,0 40.911179,36.870567 0 1 1 81.822361,0 z"
         transform="matrix(0.03096071,0,0,-0.03435366,22.599063,1036.973)" />
      <path
         sodipodi:type="arc"
         style="fill:#ffffff;stroke:#ffffff"
         id="path4621-5-2-7-9-38"
         sodipodi:cx="115.66247"
         sodipodi:cy="107.89577"
         sodipodi:rx="40.911179"
         sodipodi:ry="36.870567"
         d="m 156.57365,107.89577 a 40.911179,36.870567 0 1 1 -81.822361,0 40.911179,36.870567 0 1 1 81.822361,0 z"
         transform="matrix(0.03096071,0,0,-0.03435366,29.685677,1036.973)" />
      <path
         sodipodi:type="arc"
         style="fill:#ffffff;stroke:#ffffff"
         id="path4621-5-2-74"
         sodipodi:cx="115.66247"
         sodipodi:cy="107.89577"
         sodipodi:rx="40.911179"
         sodipodi:ry="36.870567"
         d="m 156.57365,107.89577 a 40.911179,36.870567 0 1 1 -81.822361,0 40.911179,36.870567 0 1 1 81.822361,0 z"
         transform="matrix(0.03096071,0,0,-0.03435366,1.2914541,1029.9341)" />
      <path
         sodipodi:type="arc"
         style="fill:#ffffff;stroke:#ffffff"
         id="path4621-5-2-7-277"
         sodipodi:cx="115.66247"
         sodipodi:cy="107.89577"
         sodipodi:rx="40.911179"
         sodipodi:ry="36.870567"
         d="m 156.57365,107.89577 a 40.911179,36.870567 0 1 1 -81.822361,0 40.911179,36.870567 0 1 1 81.822361,0 z"
         transform="matrix(0.03096071,0,0,-0.03435366,8.4258336,1029.8864)" />
      <path
         sodipodi:type="arc"
         style="fill:#ffffff;stroke:#ffffff"
         id="path4621-5-2-7-4-93"
         sodipodi:cx="115.66247"
         sodipodi:cy="107.89577"
         sodipodi:rx="40.911179"
         sodipodi:ry="36.870567"
         d="m 156.57365,107.89577 a 40.911179,36.870567 0 1 1 -81.822361,0 40.911179,36.870567 0 1 1 81.822361,0 z"
         transform="matrix(0.03096071,0,0,-0.03435366,15.512448,1029.8864)" />
      <path
         sodipodi:type="arc"
         style="fill:#ffffff;stroke:#ffffff"
         id="path4621-5-2-7-0-19"
         sodipodi:cx="115.66247"
         sodipodi:cy="107.89577"
         sodipodi:rx="40.911179"
         sodipodi:ry="36.870567"
         d="m 156.57365,107.89577 a 40.911179,36.870567 0 1 1 -81.822361,0 40.911179,36.870567 0 1 1 81.822361,0 z"
         transform="matrix(0.03096071,0,0,-0.03435366,22.599063,1029.8864)" />
      <path
         sodipodi:type="arc"
         style="fill:#ffffff;stroke:#ffffff"
         id="path4621-5-2-7-9-86"
         sodipodi:cx="115.66247"
         sodipodi:cy="107.89577"
         sodipodi:rx="40.911179"
         sodipodi:ry="36.870567"
         d="m 156.57365,107.89577 a 40.911179,36.870567 0 1 1 -81.822361,0 40.911179,36.870567 0 1 1 81.822361,0 z"
         transform="matrix(0.03096071,0,0,-0.03435366,29.685677,1029.8864)" />
    </g>
  </g>
  <g
     inkscape:groupmode="layer"
     id="layer3"
     inkscape:label="Info"
     style="display:inline"
     sodipodi:insensitive="true">
    <path
       style="fill:none;stroke:#ffffff;stroke-width:5;stroke-linecap:butt;stroke-linejoin:miter;stroke-miterlimit:4;stroke-opacity:1;stroke-dasharray:none;marker-start:url(#Arrow1Mstarta);marker-mid:none"
       d="m 73.684426,81.744418 0,71.004992"
       id="path4072"
       inkscape:connector-curvature="0" />
    <text
       xml:space="preserve"
       style="font-size:40px;font-style:normal;font-weight:normal;line-height:125%;letter-spacing:0px;word-spacing:0px;fill:#000000;fill-opacity:1;stroke:none;font-family:Sans"
       x="86.794334"
       y="103.6395"
       id="text5512"
       sodipodi:linespacing="125%"><tspan
         sodipodi:role="line"
         id="tspan5514"
         x="86.794334"
         y="103.6395"
         style="font-size:24px;fill:#ffffff;fill-opacity:1">   Up</tspan><tspan
         sodipodi:role="line"
         x="86.794334"
         y="133.6395"
         style="font-size:24px;fill:#ffffff;fill-opacity:1"
         id="tspan3883"> 1mm</tspan></text>
  </g>
</svg>
