<?xml version="1.0" encoding="UTF-8" standalone="no"?>
<!-- Created with Inkscape (http://www.inkscape.org/) -->

<svg
   xmlns:dc="http://purl.org/dc/elements/1.1/"
   xmlns:cc="http://creativecommons.org/ns#"
   xmlns:rdf="http://www.w3.org/1999/02/22-rdf-syntax-ns#"
   xmlns:svg="http://www.w3.org/2000/svg"
   xmlns="http://www.w3.org/2000/svg"
   xmlns:sodipodi="http://sodipodi.sourceforge.net/DTD/sodipodi-0.dtd"
   xmlns:inkscape="http://www.inkscape.org/namespaces/inkscape"
   inkscape:version="0.48.4 r9939"
   version="1.1"
   id="svg2"
   height="765"
   width="990"
   sodipodi:docname="CalibrationBoard.svg">
  <sodipodi:namedview
     id="base"
     pagecolor="#ffffff"
     bordercolor="#666666"
     borderopacity="1.0"
     inkscape:pageopacity="0"
     inkscape:pageshadow="2"
     inkscape:zoom="0.74642639"
     inkscape:cx="350.27663"
     inkscape:cy="406.34831"
     inkscape:document-units="px"
     inkscape:current-layer="layer3"
     showgrid="false"
     units="mm"
     inkscape:window-width="1538"
     inkscape:window-height="877"
     inkscape:window-x="54"
     inkscape:window-y="-8"
     inkscape:window-maximized="1" />
  <defs
     id="defs4">
    <marker
       style="overflow:visible"
       id="Arrow1Mstart"
       refX="0.0"
       refY="0.0"
       orient="auto"
       inkscape:stockid="Arrow1Mstart">
      <path
         transform="scale(0.4) translate(10,0)"
         style="fill-rule:evenodd;stroke:#000000;stroke-width:1.0pt"
         d="M 0.0,0.0 L 5.0,-5.0 L -12.5,0.0 L 5.0,5.0 L 0.0,0.0 z "
         id="path4084" />
    </marker>
    <marker
       inkscape:stockid="Arrow2Lstart"
       orient="auto"
       refY="0.0"
       refX="0.0"
       id="Arrow2Lstart"
       style="overflow:visible">
      <path
         id="path4096"
         style="fill-rule:evenodd;stroke-width:0.62500000;stroke-linejoin:round"
         d="M 8.7185878,4.0337352 L -2.2072895,0.016013256 L 8.7185884,-4.0017078 C 6.9730900,-1.6296469 6.9831476,1.6157441 8.7185878,4.0337352 z "
         transform="scale(1.1) translate(1,0)" />
    </marker>
    <marker
       inkscape:stockid="Arrow1Lstart"
       orient="auto"
       refY="0.0"
       refX="0.0"
       id="Arrow1Lstart"
       style="overflow:visible">
      <path
         id="path4078"
         d="M 0.0,0.0 L 5.0,-5.0 L -12.5,0.0 L 5.0,5.0 L 0.0,0.0 z "
         style="fill-rule:evenodd;stroke:#000000;stroke-width:1.0pt"
         transform="scale(0.8) translate(12.5,0)" />
    </marker>
    <marker
       inkscape:stockid="Arrow2Lstartp"
       orient="auto"
       refY="0.0"
       refX="0.0"
       id="Arrow2Lstartp"
       style="overflow:visible">
      <path
         id="path4893"
         style="stroke-linejoin:round;stroke:#ffffff;stroke-width:0.62500000;fill:#ffffff;fill-rule:evenodd"
         d="M 8.7185878,4.0337352 L -2.2072895,0.016013256 L 8.7185884,-4.0017078 C 6.9730900,-1.6296469 6.9831476,1.6157441 8.7185878,4.0337352 z "
         transform="scale(1.1) translate(1,0)" />
    </marker>
    <marker
       style="overflow:visible"
       id="Arrow1Mstarta"
       refX="0.0"
       refY="0.0"
       orient="auto"
       inkscape:stockid="Arrow1Mstarta">
      <path
         transform="scale(0.4) translate(10,0)"
         style="stroke:#ffffff;stroke-width:1.0pt;fill:#ffffff;fill-rule:evenodd"
         d="M 0.0,0.0 L 5.0,-5.0 L -12.5,0.0 L 5.0,5.0 L 0.0,0.0 z "
         id="path5395" />
    </marker>
  </defs>
  <metadata
     id="metadata7">
    <rdf:RDF>
      <cc:Work
         rdf:about="">
        <dc:format>image/svg+xml</dc:format>
        <dc:type
           rdf:resource="http://purl.org/dc/dcmitype/StillImage" />
        <dc:title />
      </cc:Work>
    </rdf:RDF>
  </metadata>
  <g
     id="g4871"
     transform="translate(114.09449,-107.8937)" />
  <g
     inkscape:groupmode="layer"
     id="layer2"
     inkscape:label="Background"
     sodipodi:insensitive="true"
     style="display:inline">
    <rect
       style="fill:#000000;fill-opacity:1;stroke:#000000;stroke-width:0.99651408"
       id="rect3797"
       width="989.00348"
       height="764.00348"
       x="0.49825704"
       y="0.49826396" />
  </g>
  <g
     inkscape:label="Circles"
     inkscape:groupmode="layer"
     id="layer1"
     transform="translate(0,-287.35978)"
     sodipodi:insensitive="true">
    <g
       transform="matrix(1,0,0,-1,114.09449,1160.2535)"
       id="g3820">
      <path
         sodipodi:type="arc"
         style="fill:#ffffff;stroke:#ffffff"
         id="path4621"
         sodipodi:cx="115.66247"
         sodipodi:cy="107.89577"
         sodipodi:rx="40.911179"
         sodipodi:ry="36.870567"
         d="m 156.57365,107.89577 c 0,20.36305 -18.31656,36.87056 -40.91118,36.87056 -22.594622,0 -40.911181,-16.50751 -40.911181,-36.87056 0,-20.363055 18.316559,-36.87057 40.911181,-36.87057 22.59462,0 40.91118,16.507515 40.91118,36.87057 z"
         transform="matrix(0.64131692,0,0,0.71159825,-47.601495,590.78062)" />
      <path
         sodipodi:type="arc"
         style="fill:#ffffff;stroke:#ffffff"
         id="path4621-1"
         sodipodi:cx="115.66247"
         sodipodi:cy="107.89577"
         sodipodi:rx="40.911179"
         sodipodi:ry="36.870567"
         d="m 156.57365,107.89577 c 0,20.36305 -18.31656,36.87056 -40.91118,36.87056 -22.594622,0 -40.911181,-16.50751 -40.911181,-36.87056 0,-20.363055 18.316559,-36.87057 40.911181,-36.87057 22.59462,0 40.91118,16.507515 40.91118,36.87057 z"
         transform="matrix(0.64131692,0,0,0.71159825,23.264647,661.64676)" />
      <path
         sodipodi:type="arc"
         style="fill:#ffffff;stroke:#ffffff"
         id="path4621-7"
         sodipodi:cx="115.66247"
         sodipodi:cy="107.89577"
         sodipodi:rx="40.911179"
         sodipodi:ry="36.870567"
         d="m 156.57365,107.89577 c 0,20.36305 -18.31656,36.87056 -40.91118,36.87056 -22.594622,0 -40.911181,-16.50751 -40.911181,-36.87056 0,-20.363055 18.316559,-36.87057 40.911181,-36.87057 22.59462,0 40.91118,16.507515 40.91118,36.87057 z"
         transform="matrix(0.64131692,0,0,0.71159825,94.130789,590.78062)" />
      <path
         sodipodi:type="arc"
         style="fill:#ffffff;stroke:#ffffff"
         id="path4621-1-4"
         sodipodi:cx="115.66247"
         sodipodi:cy="107.89577"
         sodipodi:rx="40.911179"
         sodipodi:ry="36.870567"
         d="m 156.57365,107.89577 c 0,20.36305 -18.31656,36.87056 -40.91118,36.87056 -22.594622,0 -40.911181,-16.50751 -40.911181,-36.87056 0,-20.363055 18.316559,-36.87057 40.911181,-36.87057 22.59462,0 40.91118,16.507515 40.91118,36.87057 z"
         transform="matrix(0.64131692,0,0,0.71159825,164.99693,661.64676)" />
      <path
         sodipodi:type="arc"
         style="fill:#ffffff;stroke:#ffffff"
         id="path4621-0"
         sodipodi:cx="115.66247"
         sodipodi:cy="107.89577"
         sodipodi:rx="40.911179"
         sodipodi:ry="36.870567"
         d="m 156.57365,107.89577 c 0,20.36305 -18.31656,36.87056 -40.91118,36.87056 -22.594622,0 -40.911181,-16.50751 -40.911181,-36.87056 0,-20.363055 18.316559,-36.87057 40.911181,-36.87057 22.59462,0 40.91118,16.507515 40.91118,36.87057 z"
         transform="matrix(0.64131692,0,0,0.71159825,235.86307,590.78062)" />
      <path
         sodipodi:type="arc"
         style="fill:#ffffff;stroke:#ffffff"
         id="path4621-1-9"
         sodipodi:cx="115.66247"
         sodipodi:cy="107.89577"
         sodipodi:rx="40.911179"
         sodipodi:ry="36.870567"
         d="m 156.57365,107.89577 c 0,20.36305 -18.31656,36.87056 -40.91118,36.87056 -22.594622,0 -40.911181,-16.50751 -40.911181,-36.87056 0,-20.363055 18.316559,-36.87057 40.911181,-36.87057 22.59462,0 40.91118,16.507515 40.91118,36.87057 z"
         transform="matrix(0.64131692,0,0,0.71159825,306.72921,661.64676)" />
      <path
         sodipodi:type="arc"
         style="fill:#ffffff;stroke:#ffffff"
         id="path4621-7-4"
         sodipodi:cx="115.66247"
         sodipodi:cy="107.89577"
         sodipodi:rx="40.911179"
         sodipodi:ry="36.870567"
         d="m 156.57365,107.89577 c 0,20.36305 -18.31656,36.87056 -40.91118,36.87056 -22.594622,0 -40.911181,-16.50751 -40.911181,-36.87056 0,-20.363055 18.316559,-36.87057 40.911181,-36.87057 22.59462,0 40.91118,16.507515 40.91118,36.87057 z"
         transform="matrix(0.64131692,0,0,0.71159825,377.59535,590.78062)" />
      <path
         sodipodi:type="arc"
         style="fill:#ffffff;stroke:#ffffff"
         id="path4621-1-4-8"
         sodipodi:cx="115.66247"
         sodipodi:cy="107.89577"
         sodipodi:rx="40.911179"
         sodipodi:ry="36.870567"
         d="m 156.57365,107.89577 c 0,20.36305 -18.31656,36.87056 -40.91118,36.87056 -22.594622,0 -40.911181,-16.50751 -40.911181,-36.87056 0,-20.363055 18.316559,-36.87057 40.911181,-36.87057 22.59462,0 40.91118,16.507515 40.91118,36.87057 z"
         transform="matrix(0.64131692,0,0,0.71159825,448.46149,661.64676)" />
      <path
         sodipodi:type="arc"
         style="fill:#ffffff;stroke:#ffffff"
         id="path4621-8"
         sodipodi:cx="115.66247"
         sodipodi:cy="107.89577"
         sodipodi:rx="40.911179"
         sodipodi:ry="36.870567"
         d="m 156.57365,107.89577 c 0,20.36305 -18.31656,36.87056 -40.91118,36.87056 -22.594622,0 -40.911181,-16.50751 -40.911181,-36.87056 0,-20.363055 18.316559,-36.87057 40.911181,-36.87057 22.59462,0 40.91118,16.507515 40.91118,36.87057 z"
         transform="matrix(0.64131692,0,0,0.71159825,519.32764,590.78062)" />
      <path
         sodipodi:type="arc"
         style="fill:#ffffff;stroke:#ffffff"
         id="path4621-1-2"
         sodipodi:cx="115.66247"
         sodipodi:cy="107.89577"
         sodipodi:rx="40.911179"
         sodipodi:ry="36.870567"
         d="m 156.57365,107.89577 c 0,20.36305 -18.31656,36.87056 -40.91118,36.87056 -22.594622,0 -40.911181,-16.50751 -40.911181,-36.87056 0,-20.363055 18.316559,-36.87057 40.911181,-36.87057 22.59462,0 40.91118,16.507515 40.91118,36.87057 z"
         transform="matrix(0.64131692,0,0,0.71159825,590.19378,661.64676)" />
      <path
         sodipodi:type="arc"
         style="fill:#ffffff;stroke:#ffffff"
         id="path4621-7-45"
         sodipodi:cx="115.66247"
         sodipodi:cy="107.89577"
         sodipodi:rx="40.911179"
         sodipodi:ry="36.870567"
         d="m 156.57365,107.89577 c 0,20.36305 -18.31656,36.87056 -40.91118,36.87056 -22.594622,0 -40.911181,-16.50751 -40.911181,-36.87056 0,-20.363055 18.316559,-36.87057 40.911181,-36.87057 22.59462,0 40.91118,16.507515 40.91118,36.87057 z"
         transform="matrix(0.64131692,0,0,0.71159825,661.05992,590.78062)" />
      <path
         sodipodi:type="arc"
         style="fill:#ffffff;stroke:#ffffff"
         id="path4621-5"
         sodipodi:cx="115.66247"
         sodipodi:cy="107.89577"
         sodipodi:rx="40.911179"
         sodipodi:ry="36.870567"
         d="m 156.57365,107.89577 c 0,20.36305 -18.31656,36.87056 -40.91118,36.87056 -22.594622,0 -40.911181,-16.50751 -40.911181,-36.87056 0,-20.363055 18.316559,-36.87057 40.911181,-36.87057 22.59462,0 40.91118,16.507515 40.91118,36.87057 z"
         transform="matrix(0.64131692,0,0,0.71159825,-47.601495,449.04833)" />
      <path
         sodipodi:type="arc"
         style="fill:#ffffff;stroke:#ffffff"
         id="path4621-1-1"
         sodipodi:cx="115.66247"
         sodipodi:cy="107.89577"
         sodipodi:rx="40.911179"
         sodipodi:ry="36.870567"
         d="m 156.57365,107.89577 c 0,20.36305 -18.31656,36.87056 -40.91118,36.87056 -22.594622,0 -40.911181,-16.50751 -40.911181,-36.87056 0,-20.363055 18.316559,-36.87057 40.911181,-36.87057 22.59462,0 40.91118,16.507515 40.91118,36.87057 z"
         transform="matrix(0.64131692,0,0,0.71159825,23.264645,519.91447)" />
      <path
         sodipodi:type="arc"
         style="fill:#ffffff;stroke:#ffffff"
         id="path4621-7-7"
         sodipodi:cx="115.66247"
         sodipodi:cy="107.89577"
         sodipodi:rx="40.911179"
         sodipodi:ry="36.870567"
         d="m 156.57365,107.89577 c 0,20.36305 -18.31656,36.87056 -40.91118,36.87056 -22.594622,0 -40.911181,-16.50751 -40.911181,-36.87056 0,-20.363055 18.316559,-36.87057 40.911181,-36.87057 22.59462,0 40.91118,16.507515 40.91118,36.87057 z"
         transform="matrix(0.64131692,0,0,0.71159825,94.130785,449.04833)" />
      <path
         sodipodi:type="arc"
         style="fill:#ffffff;stroke:#ffffff"
         id="path4621-1-4-1"
         sodipodi:cx="115.66247"
         sodipodi:cy="107.89577"
         sodipodi:rx="40.911179"
         sodipodi:ry="36.870567"
         d="m 156.57365,107.89577 c 0,20.36305 -18.31656,36.87056 -40.91118,36.87056 -22.594622,0 -40.911181,-16.50751 -40.911181,-36.87056 0,-20.363055 18.316559,-36.87057 40.911181,-36.87057 22.59462,0 40.91118,16.507515 40.91118,36.87057 z"
         transform="matrix(0.64131692,0,0,0.71159825,164.99693,519.91447)" />
      <path
         sodipodi:type="arc"
         style="fill:#ffffff;stroke:#ffffff"
         id="path4621-0-1"
         sodipodi:cx="115.66247"
         sodipodi:cy="107.89577"
         sodipodi:rx="40.911179"
         sodipodi:ry="36.870567"
         d="m 156.57365,107.89577 c 0,20.36305 -18.31656,36.87056 -40.91118,36.87056 -22.594622,0 -40.911181,-16.50751 -40.911181,-36.87056 0,-20.363055 18.316559,-36.87057 40.911181,-36.87057 22.59462,0 40.91118,16.507515 40.91118,36.87057 z"
         transform="matrix(0.64131692,0,0,0.71159825,235.86307,449.04833)" />
      <path
         sodipodi:type="arc"
         style="fill:#ffffff;stroke:#ffffff"
         id="path4621-1-9-5"
         sodipodi:cx="115.66247"
         sodipodi:cy="107.89577"
         sodipodi:rx="40.911179"
         sodipodi:ry="36.870567"
         d="m 156.57365,107.89577 c 0,20.36305 -18.31656,36.87056 -40.91118,36.87056 -22.594622,0 -40.911181,-16.50751 -40.911181,-36.87056 0,-20.363055 18.316559,-36.87057 40.911181,-36.87057 22.59462,0 40.91118,16.507515 40.91118,36.87057 z"
         transform="matrix(0.64131692,0,0,0.71159825,306.72921,519.91447)" />
      <path
         sodipodi:type="arc"
         style="fill:#ffffff;stroke:#ffffff"
         id="path4621-7-4-2"
         sodipodi:cx="115.66247"
         sodipodi:cy="107.89577"
         sodipodi:rx="40.911179"
         sodipodi:ry="36.870567"
         d="m 156.57365,107.89577 c 0,20.36305 -18.31656,36.87056 -40.91118,36.87056 -22.594622,0 -40.911181,-16.50751 -40.911181,-36.87056 0,-20.363055 18.316559,-36.87057 40.911181,-36.87057 22.59462,0 40.91118,16.507515 40.91118,36.87057 z"
         transform="matrix(0.64131692,0,0,0.71159825,377.59535,449.04833)" />
      <path
         sodipodi:type="arc"
         style="fill:#ffffff;stroke:#ffffff"
         id="path4621-1-4-8-7"
         sodipodi:cx="115.66247"
         sodipodi:cy="107.89577"
         sodipodi:rx="40.911179"
         sodipodi:ry="36.870567"
         d="m 156.57365,107.89577 c 0,20.36305 -18.31656,36.87056 -40.91118,36.87056 -22.594622,0 -40.911181,-16.50751 -40.911181,-36.87056 0,-20.363055 18.316559,-36.87057 40.911181,-36.87057 22.59462,0 40.91118,16.507515 40.91118,36.87057 z"
         transform="matrix(0.64131692,0,0,0.71159825,448.46149,519.91447)" />
      <path
         sodipodi:type="arc"
         style="fill:#ffffff;stroke:#ffffff"
         id="path4621-8-6"
         sodipodi:cx="115.66247"
         sodipodi:cy="107.89577"
         sodipodi:rx="40.911179"
         sodipodi:ry="36.870567"
         d="m 156.57365,107.89577 c 0,20.36305 -18.31656,36.87056 -40.91118,36.87056 -22.594622,0 -40.911181,-16.50751 -40.911181,-36.87056 0,-20.363055 18.316559,-36.87057 40.911181,-36.87057 22.59462,0 40.91118,16.507515 40.91118,36.87057 z"
         transform="matrix(0.64131692,0,0,0.71159825,519.32764,449.04833)" />
      <path
         sodipodi:type="arc"
         style="fill:#ffffff;stroke:#ffffff"
         id="path4621-1-2-1"
         sodipodi:cx="115.66247"
         sodipodi:cy="107.89577"
         sodipodi:rx="40.911179"
         sodipodi:ry="36.870567"
         d="m 156.57365,107.89577 c 0,20.36305 -18.31656,36.87056 -40.91118,36.87056 -22.594622,0 -40.911181,-16.50751 -40.911181,-36.87056 0,-20.363055 18.316559,-36.87057 40.911181,-36.87057 22.59462,0 40.91118,16.507515 40.91118,36.87057 z"
         transform="matrix(0.64131692,0,0,0.71159825,590.19378,519.91447)" />
      <path
         sodipodi:type="arc"
         style="fill:#ffffff;stroke:#ffffff"
         id="path4621-7-45-4"
         sodipodi:cx="115.66247"
         sodipodi:cy="107.89577"
         sodipodi:rx="40.911179"
         sodipodi:ry="36.870567"
         d="m 156.57365,107.89577 c 0,20.36305 -18.31656,36.87056 -40.91118,36.87056 -22.594622,0 -40.911181,-16.50751 -40.911181,-36.87056 0,-20.363055 18.316559,-36.87057 40.911181,-36.87057 22.59462,0 40.91118,16.507515 40.91118,36.87057 z"
         transform="matrix(0.64131692,0,0,0.71159825,661.05992,449.04833)" />
      <path
         sodipodi:type="arc"
         style="fill:#ffffff;stroke:#ffffff"
         id="path4621-2"
         sodipodi:cx="115.66247"
         sodipodi:cy="107.89577"
         sodipodi:rx="40.911179"
         sodipodi:ry="36.870567"
         d="m 156.57365,107.89577 c 0,20.36305 -18.31656,36.87056 -40.91118,36.87056 -22.594622,0 -40.911181,-16.50751 -40.911181,-36.87056 0,-20.363055 18.316559,-36.87057 40.911181,-36.87057 22.59462,0 40.91118,16.507515 40.91118,36.87057 z"
         transform="matrix(0.64131692,0,0,0.71159825,-47.601495,307.31605)" />
      <path
         sodipodi:type="arc"
         style="fill:#ffffff;stroke:#ffffff"
         id="path4621-1-3"
         sodipodi:cx="115.66247"
         sodipodi:cy="107.89577"
         sodipodi:rx="40.911179"
         sodipodi:ry="36.870567"
         d="m 156.57365,107.89577 c 0,20.36305 -18.31656,36.87056 -40.91118,36.87056 -22.594622,0 -40.911181,-16.50751 -40.911181,-36.87056 0,-20.363055 18.316559,-36.87057 40.911181,-36.87057 22.59462,0 40.91118,16.507515 40.91118,36.87057 z"
         transform="matrix(0.64131692,0,0,0.71159825,23.264645,378.18219)" />
      <path
         sodipodi:type="arc"
         style="fill:#ffffff;stroke:#ffffff"
         id="path4621-7-2"
         sodipodi:cx="115.66247"
         sodipodi:cy="107.89577"
         sodipodi:rx="40.911179"
         sodipodi:ry="36.870567"
         d="m 156.57365,107.89577 c 0,20.36305 -18.31656,36.87056 -40.91118,36.87056 -22.594622,0 -40.911181,-16.50751 -40.911181,-36.87056 0,-20.363055 18.316559,-36.87057 40.911181,-36.87057 22.59462,0 40.91118,16.507515 40.91118,36.87057 z"
         transform="matrix(0.64131692,0,0,0.71159825,94.130785,307.31605)" />
      <path
         sodipodi:type="arc"
         style="fill:#ffffff;stroke:#ffffff"
         id="path4621-1-4-2"
         sodipodi:cx="115.66247"
         sodipodi:cy="107.89577"
         sodipodi:rx="40.911179"
         sodipodi:ry="36.870567"
         d="m 156.57365,107.89577 c 0,20.36305 -18.31656,36.87056 -40.91118,36.87056 -22.594622,0 -40.911181,-16.50751 -40.911181,-36.87056 0,-20.363055 18.316559,-36.87057 40.911181,-36.87057 22.59462,0 40.91118,16.507515 40.91118,36.87057 z"
         transform="matrix(0.64131692,0,0,0.71159825,164.99693,378.18219)" />
      <path
         sodipodi:type="arc"
         style="fill:#ffffff;stroke:#ffffff"
         id="path4621-0-16"
         sodipodi:cx="115.66247"
         sodipodi:cy="107.89577"
         sodipodi:rx="40.911179"
         sodipodi:ry="36.870567"
         d="m 156.57365,107.89577 c 0,20.36305 -18.31656,36.87056 -40.91118,36.87056 -22.594622,0 -40.911181,-16.50751 -40.911181,-36.87056 0,-20.363055 18.316559,-36.87057 40.911181,-36.87057 22.59462,0 40.91118,16.507515 40.91118,36.87057 z"
         transform="matrix(0.64131692,0,0,0.71159825,235.86307,307.31605)" />
      <path
         sodipodi:type="arc"
         style="fill:#ffffff;stroke:#ffffff"
         id="path4621-1-9-8"
         sodipodi:cx="115.66247"
         sodipodi:cy="107.89577"
         sodipodi:rx="40.911179"
         sodipodi:ry="36.870567"
         d="m 156.57365,107.89577 c 0,20.36305 -18.31656,36.87056 -40.91118,36.87056 -22.594622,0 -40.911181,-16.50751 -40.911181,-36.87056 0,-20.363055 18.316559,-36.87057 40.911181,-36.87057 22.59462,0 40.91118,16.507515 40.91118,36.87057 z"
         transform="matrix(0.64131692,0,0,0.71159825,306.72921,378.18219)" />
      <path
         sodipodi:type="arc"
         style="fill:#ffffff;stroke:#ffffff"
         id="path4621-7-4-5"
         sodipodi:cx="115.66247"
         sodipodi:cy="107.89577"
         sodipodi:rx="40.911179"
         sodipodi:ry="36.870567"
         d="m 156.57365,107.89577 c 0,20.36305 -18.31656,36.87056 -40.91118,36.87056 -22.594622,0 -40.911181,-16.50751 -40.911181,-36.87056 0,-20.363055 18.316559,-36.87057 40.911181,-36.87057 22.59462,0 40.91118,16.507515 40.91118,36.87057 z"
         transform="matrix(0.64131692,0,0,0.71159825,377.59535,307.31605)" />
      <path
         sodipodi:type="arc"
         style="fill:#ffffff;stroke:#ffffff"
         id="path4621-1-4-8-76"
         sodipodi:cx="115.66247"
         sodipodi:cy="107.89577"
         sodipodi:rx="40.911179"
         sodipodi:ry="36.870567"
         d="m 156.57365,107.89577 c 0,20.36305 -18.31656,36.87056 -40.91118,36.87056 -22.594622,0 -40.911181,-16.50751 -40.911181,-36.87056 0,-20.363055 18.316559,-36.87057 40.911181,-36.87057 22.59462,0 40.91118,16.507515 40.91118,36.87057 z"
         transform="matrix(0.64131692,0,0,0.71159825,448.46149,378.18219)" />
      <path
         sodipodi:type="arc"
         style="fill:#ffffff;stroke:#ffffff"
         id="path4621-8-1"
         sodipodi:cx="115.66247"
         sodipodi:cy="107.89577"
         sodipodi:rx="40.911179"
         sodipodi:ry="36.870567"
         d="m 156.57365,107.89577 c 0,20.36305 -18.31656,36.87056 -40.91118,36.87056 -22.594622,0 -40.911181,-16.50751 -40.911181,-36.87056 0,-20.363055 18.316559,-36.87057 40.911181,-36.87057 22.59462,0 40.91118,16.507515 40.91118,36.87057 z"
         transform="matrix(0.64131692,0,0,0.71159825,519.32764,307.31605)" />
      <path
         sodipodi:type="arc"
         style="fill:#ffffff;stroke:#ffffff"
         id="path4621-1-2-8"
         sodipodi:cx="115.66247"
         sodipodi:cy="107.89577"
         sodipodi:rx="40.911179"
         sodipodi:ry="36.870567"
         d="m 156.57365,107.89577 c 0,20.36305 -18.31656,36.87056 -40.91118,36.87056 -22.594622,0 -40.911181,-16.50751 -40.911181,-36.87056 0,-20.363055 18.316559,-36.87057 40.911181,-36.87057 22.59462,0 40.91118,16.507515 40.91118,36.87057 z"
         transform="matrix(0.64131692,0,0,0.71159825,590.19378,378.18219)" />
      <path
         sodipodi:type="arc"
         style="fill:#ffffff;stroke:#ffffff"
         id="path4621-7-45-9"
         sodipodi:cx="115.66247"
         sodipodi:cy="107.89577"
         sodipodi:rx="40.911179"
         sodipodi:ry="36.870567"
         d="m 156.57365,107.89577 c 0,20.36305 -18.31656,36.87056 -40.91118,36.87056 -22.594622,0 -40.911181,-16.50751 -40.911181,-36.87056 0,-20.363055 18.316559,-36.87057 40.911181,-36.87057 22.59462,0 40.91118,16.507515 40.91118,36.87057 z"
         transform="matrix(0.64131692,0,0,0.71159825,661.05992,307.31605)" />
      <path
         sodipodi:type="arc"
         style="fill:#ffffff;stroke:#ffffff"
         id="path4621-5-2"
         sodipodi:cx="115.66247"
         sodipodi:cy="107.89577"
         sodipodi:rx="40.911179"
         sodipodi:ry="36.870567"
         d="m 156.57365,107.89577 c 0,20.36305 -18.31656,36.87056 -40.91118,36.87056 -22.594622,0 -40.911181,-16.50751 -40.911181,-36.87056 0,-20.363055 18.316559,-36.87057 40.911181,-36.87057 22.59462,0 40.91118,16.507515 40.91118,36.87057 z"
         transform="matrix(0.64131692,0,0,0.71159825,-47.601495,165.58376)" />
      <path
         sodipodi:type="arc"
         style="fill:#ffffff;stroke:#ffffff"
         id="path4621-1-1-7"
         sodipodi:cx="115.66247"
         sodipodi:cy="107.89577"
         sodipodi:rx="40.911179"
         sodipodi:ry="36.870567"
         d="m 156.57365,107.89577 c 0,20.36305 -18.31656,36.87056 -40.91118,36.87056 -22.594622,0 -40.911181,-16.50751 -40.911181,-36.87056 0,-20.363055 18.316559,-36.87057 40.911181,-36.87057 22.59462,0 40.91118,16.507515 40.91118,36.87057 z"
         transform="matrix(0.64131692,0,0,0.71159825,23.264645,236.4499)" />
      <path
         sodipodi:type="arc"
         style="fill:#ffffff;stroke:#ffffff"
         id="path4621-7-7-9"
         sodipodi:cx="115.66247"
         sodipodi:cy="107.89577"
         sodipodi:rx="40.911179"
         sodipodi:ry="36.870567"
         d="m 156.57365,107.89577 c 0,20.36305 -18.31656,36.87056 -40.91118,36.87056 -22.594622,0 -40.911181,-16.50751 -40.911181,-36.87056 0,-20.363055 18.316559,-36.87057 40.911181,-36.87057 22.59462,0 40.91118,16.507515 40.91118,36.87057 z"
         transform="matrix(0.64131692,0,0,0.71159825,94.130785,165.58376)" />
      <path
         sodipodi:type="arc"
         style="fill:#ffffff;stroke:#ffffff"
         id="path4621-1-4-1-5"
         sodipodi:cx="115.66247"
         sodipodi:cy="107.89577"
         sodipodi:rx="40.911179"
         sodipodi:ry="36.870567"
         d="m 156.57365,107.89577 c 0,20.36305 -18.31656,36.87056 -40.91118,36.87056 -22.594622,0 -40.911181,-16.50751 -40.911181,-36.87056 0,-20.363055 18.316559,-36.87057 40.911181,-36.87057 22.59462,0 40.91118,16.507515 40.91118,36.87057 z"
         transform="matrix(0.64131692,0,0,0.71159825,164.99693,236.4499)" />
      <path
         sodipodi:type="arc"
         style="fill:#ffffff;stroke:#ffffff"
         id="path4621-0-1-4"
         sodipodi:cx="115.66247"
         sodipodi:cy="107.89577"
         sodipodi:rx="40.911179"
         sodipodi:ry="36.870567"
         d="m 156.57365,107.89577 c 0,20.36305 -18.31656,36.87056 -40.91118,36.87056 -22.594622,0 -40.911181,-16.50751 -40.911181,-36.87056 0,-20.363055 18.316559,-36.87057 40.911181,-36.87057 22.59462,0 40.91118,16.507515 40.91118,36.87057 z"
         transform="matrix(0.64131692,0,0,0.71159825,235.86307,165.58376)" />
      <path
         sodipodi:type="arc"
         style="fill:#ffffff;stroke:#ffffff"
         id="path4621-1-9-5-3"
         sodipodi:cx="115.66247"
         sodipodi:cy="107.89577"
         sodipodi:rx="40.911179"
         sodipodi:ry="36.870567"
         d="m 156.57365,107.89577 c 0,20.36305 -18.31656,36.87056 -40.91118,36.87056 -22.594622,0 -40.911181,-16.50751 -40.911181,-36.87056 0,-20.363055 18.316559,-36.87057 40.911181,-36.87057 22.59462,0 40.91118,16.507515 40.91118,36.87057 z"
         transform="matrix(0.64131692,0,0,0.71159825,306.72921,236.4499)" />
      <path
         sodipodi:type="arc"
         style="fill:#ffffff;stroke:#ffffff"
         id="path4621-7-4-2-1"
         sodipodi:cx="115.66247"
         sodipodi:cy="107.89577"
         sodipodi:rx="40.911179"
         sodipodi:ry="36.870567"
         d="m 156.57365,107.89577 c 0,20.36305 -18.31656,36.87056 -40.91118,36.87056 -22.594622,0 -40.911181,-16.50751 -40.911181,-36.87056 0,-20.363055 18.316559,-36.87057 40.911181,-36.87057 22.59462,0 40.91118,16.507515 40.91118,36.87057 z"
         transform="matrix(0.64131692,0,0,0.71159825,377.59535,165.58376)" />
      <path
         sodipodi:type="arc"
         style="fill:#ffffff;stroke:#ffffff"
         id="path4621-1-4-8-7-2"
         sodipodi:cx="115.66247"
         sodipodi:cy="107.89577"
         sodipodi:rx="40.911179"
         sodipodi:ry="36.870567"
         d="m 156.57365,107.89577 c 0,20.36305 -18.31656,36.87056 -40.91118,36.87056 -22.594622,0 -40.911181,-16.50751 -40.911181,-36.87056 0,-20.363055 18.316559,-36.87057 40.911181,-36.87057 22.59462,0 40.91118,16.507515 40.91118,36.87057 z"
         transform="matrix(0.64131692,0,0,0.71159825,448.46149,236.4499)" />
      <path
         sodipodi:type="arc"
         style="fill:#ffffff;stroke:#ffffff"
         id="path4621-8-6-3"
         sodipodi:cx="115.66247"
         sodipodi:cy="107.89577"
         sodipodi:rx="40.911179"
         sodipodi:ry="36.870567"
         d="m 156.57365,107.89577 c 0,20.36305 -18.31656,36.87056 -40.91118,36.87056 -22.594622,0 -40.911181,-16.50751 -40.911181,-36.87056 0,-20.363055 18.316559,-36.87057 40.911181,-36.87057 22.59462,0 40.91118,16.507515 40.91118,36.87057 z"
         transform="matrix(0.64131692,0,0,0.71159825,519.32764,165.58376)" />
      <path
         sodipodi:type="arc"
         style="fill:#ffffff;stroke:#ffffff"
         id="path4621-1-2-1-3"
         sodipodi:cx="115.66247"
         sodipodi:cy="107.89577"
         sodipodi:rx="40.911179"
         sodipodi:ry="36.870567"
         d="m 156.57365,107.89577 c 0,20.36305 -18.31656,36.87056 -40.91118,36.87056 -22.594622,0 -40.911181,-16.50751 -40.911181,-36.87056 0,-20.363055 18.316559,-36.87057 40.911181,-36.87057 22.59462,0 40.91118,16.507515 40.91118,36.87057 z"
         transform="matrix(0.64131692,0,0,0.71159825,590.19378,236.4499)" />
      <path
         sodipodi:type="arc"
         style="fill:#ffffff;stroke:#ffffff"
         id="path4621-7-45-4-4"
         sodipodi:cx="115.66247"
         sodipodi:cy="107.89577"
         sodipodi:rx="40.911179"
         sodipodi:ry="36.870567"
         d="m 156.57365,107.89577 c 0,20.36305 -18.31656,36.87056 -40.91118,36.87056 -22.594622,0 -40.911181,-16.50751 -40.911181,-36.87056 0,-20.363055 18.316559,-36.87057 40.911181,-36.87057 22.59462,0 40.91118,16.507515 40.91118,36.87057 z"
         transform="matrix(0.64131692,0,0,0.71159825,661.05992,165.58376)" />
    </g>
  </g>
  <g
     inkscape:groupmode="layer"
     id="layer3"
     inkscape:label="Info">
    <path
       style="stroke-linejoin:miter;stroke-opacity:1;marker-start:url(#Arrow1Mstarta);stroke:#ffffff;stroke-linecap:butt;stroke-miterlimit:4;stroke-dasharray:none;stroke-width:5;marker-mid:none;fill:none"
       d="m 73.684426,81.744418 0,71.004992"
       id="path4072"
       inkscape:connector-curvature="0" />
    <text
       xml:space="preserve"
       style="font-size:40px;font-style:normal;font-weight:normal;line-height:125%;letter-spacing:0px;word-spacing:0px;fill:#000000;fill-opacity:1;stroke:none;font-family:Sans"
       x="86.794334"
       y="103.6395"
       id="text5512"
       sodipodi:linespacing="125%"><tspan
         sodipodi:role="line"
         id="tspan5514"
         x="86.794334"
         y="103.6395"
         style="fill:#ffffff;fill-opacity:1">Up</tspan></text>
  </g>
</svg>
