<?xml version="1.0" encoding="UTF-8" standalone="no"?>
<!-- Created with Inkscape (http://www.inkscape.org/) -->

<svg
   xmlns:dc="http://purl.org/dc/elements/1.1/"
   xmlns:cc="http://creativecommons.org/ns#"
   xmlns:rdf="http://www.w3.org/1999/02/22-rdf-syntax-ns#"
   xmlns:svg="http://www.w3.org/2000/svg"
   xmlns="http://www.w3.org/2000/svg"
   xmlns:sodipodi="http://sodipodi.sourceforge.net/DTD/sodipodi-0.dtd"
   xmlns:inkscape="http://www.inkscape.org/namespaces/inkscape"
   inkscape:version="0.48.2 r9819"
   version="1.1"
   id="svg2"
   height="765"
   width="990"
   sodipodi:docname="CalibrationBoard-5.svg">
  <sodipodi:namedview
     id="base"
     pagecolor="#ffffff"
     bordercolor="#666666"
     borderopacity="1.0"
     inkscape:pageopacity="0"
     inkscape:pageshadow="2"
     inkscape:zoom="1.0556063"
     inkscape:cx="344.83491"
     inkscape:cy="352.22822"
     inkscape:document-units="px"
     inkscape:current-layer="layer1"
     showgrid="false"
     units="mm"
     inkscape:window-width="1920"
     inkscape:window-height="1058"
     inkscape:window-x="1912"
     inkscape:window-y="-8"
     inkscape:window-maximized="1" />
  <defs
     id="defs4">
    <marker
       style="overflow:visible"
       id="Arrow1Mstart"
       refX="0.0"
       refY="0.0"
       orient="auto"
       inkscape:stockid="Arrow1Mstart">
      <path
         transform="scale(0.4) translate(10,0)"
         style="fill-rule:evenodd;stroke:#000000;stroke-width:1.0pt"
         d="M 0.0,0.0 L 5.0,-5.0 L -12.5,0.0 L 5.0,5.0 L 0.0,0.0 z "
         id="path4084" />
    </marker>
    <marker
       inkscape:stockid="Arrow2Lstart"
       orient="auto"
       refY="0.0"
       refX="0.0"
       id="Arrow2Lstart"
       style="overflow:visible">
      <path
         id="path4096"
         style="fill-rule:evenodd;stroke-width:0.62500000;stroke-linejoin:round"
         d="M 8.7185878,4.0337352 L -2.2072895,0.016013256 L 8.7185884,-4.0017078 C 6.9730900,-1.6296469 6.9831476,1.6157441 8.7185878,4.0337352 z "
         transform="scale(1.1) translate(1,0)" />
    </marker>
    <marker
       inkscape:stockid="Arrow1Lstart"
       orient="auto"
       refY="0.0"
       refX="0.0"
       id="Arrow1Lstart"
       style="overflow:visible">
      <path
         id="path4078"
         d="M 0.0,0.0 L 5.0,-5.0 L -12.5,0.0 L 5.0,5.0 L 0.0,0.0 z "
         style="fill-rule:evenodd;stroke:#000000;stroke-width:1.0pt"
         transform="scale(0.8) translate(12.5,0)" />
    </marker>
    <marker
       inkscape:stockid="Arrow2Lstartp"
       orient="auto"
       refY="0.0"
       refX="0.0"
       id="Arrow2Lstartp"
       style="overflow:visible">
      <path
         id="path4893"
         style="stroke-linejoin:round;stroke:#ffffff;stroke-width:0.62500000;fill:#ffffff;fill-rule:evenodd"
         d="M 8.7185878,4.0337352 L -2.2072895,0.016013256 L 8.7185884,-4.0017078 C 6.9730900,-1.6296469 6.9831476,1.6157441 8.7185878,4.0337352 z "
         transform="scale(1.1) translate(1,0)" />
    </marker>
    <marker
       style="overflow:visible"
       id="Arrow1Mstarta"
       refX="0.0"
       refY="0.0"
       orient="auto"
       inkscape:stockid="Arrow1Mstarta">
      <path
         transform="scale(0.4) translate(10,0)"
         style="stroke:#ffffff;stroke-width:1.0pt;fill:#ffffff;fill-rule:evenodd"
         d="M 0.0,0.0 L 5.0,-5.0 L -12.5,0.0 L 5.0,5.0 L 0.0,0.0 z "
         id="path5395" />
    </marker>
  </defs>
  <metadata
     id="metadata7">
    <rdf:RDF>
      <cc:Work
         rdf:about="">
        <dc:format>image/svg+xml</dc:format>
        <dc:type
           rdf:resource="http://purl.org/dc/dcmitype/StillImage" />
        <dc:title />
      </cc:Work>
    </rdf:RDF>
  </metadata>
  <g
     id="g4871"
     transform="translate(114.09449,-107.8937)" />
  <g
     inkscape:groupmode="layer"
     id="layer2"
     inkscape:label="Background"
     sodipodi:insensitive="true"
     style="display:inline">
    <rect
       style="fill:#000000;fill-opacity:1;stroke:#000000;stroke-width:0.99651408"
       id="rect3797"
       width="989.00348"
       height="764.00348"
       x="0.49825704"
       y="0.49826396" />
  </g>
  <g
     inkscape:label="Circles"
     inkscape:groupmode="layer"
     id="layer1"
     transform="translate(0,-287.35978)">
    <g
       id="g3277"
       transform="translate(399.77362,-313.84843)">
      <path
         sodipodi:type="arc"
         style="fill:#ffffff;stroke:#ffffff"
         id="path4621-5-2"
         sodipodi:cx="115.66247"
         sodipodi:cy="107.89577"
         sodipodi:rx="40.911179"
         sodipodi:ry="36.870567"
         d="m 156.57365,107.89577 c 0,20.36305 -18.31656,36.87056 -40.91118,36.87056 -22.594622,0 -40.911181,-16.50751 -40.911181,-36.87056 0,-20.363055 18.316559,-36.87057 40.911181,-36.87057 22.59462,0 40.91118,16.507515 40.91118,36.87057 z"
         transform="matrix(0.16032923,0,0,-0.17789956,-11.900373,1064.9107)" />
      <path
         sodipodi:type="arc"
         style="fill:#ffffff;stroke:#ffffff"
         id="path4621-5-2-1"
         sodipodi:cx="115.66247"
         sodipodi:cy="107.89577"
         sodipodi:rx="40.911179"
         sodipodi:ry="36.870567"
         d="m 156.57365,107.89577 c 0,20.36305 -18.31656,36.87056 -40.91118,36.87056 -22.594622,0 -40.911181,-16.50751 -40.911181,-36.87056 0,-20.363055 18.316559,-36.87057 40.911181,-36.87057 22.59462,0 40.91118,16.507515 40.91118,36.87057 z"
         transform="matrix(0.16032923,0,0,-0.17789956,23.532697,1064.9107)" />
      <path
         sodipodi:type="arc"
         style="fill:#ffffff;stroke:#ffffff"
         id="path4621-5-2-7"
         sodipodi:cx="115.66247"
         sodipodi:cy="107.89577"
         sodipodi:rx="40.911179"
         sodipodi:ry="36.870567"
         d="m 156.57365,107.89577 c 0,20.36305 -18.31656,36.87056 -40.91118,36.87056 -22.594622,0 -40.911181,-16.50751 -40.911181,-36.87056 0,-20.363055 18.316559,-36.87057 40.911181,-36.87057 22.59462,0 40.91118,16.507515 40.91118,36.87057 z"
         transform="matrix(0.16032923,0,0,-0.17789956,58.965768,1064.9107)" />
      <path
         sodipodi:type="arc"
         style="fill:#ffffff;stroke:#ffffff"
         id="path4621-5-2-4"
         sodipodi:cx="115.66247"
         sodipodi:cy="107.89577"
         sodipodi:rx="40.911179"
         sodipodi:ry="36.870567"
         d="m 156.57365,107.89577 c 0,20.36305 -18.31656,36.87056 -40.91118,36.87056 -22.594622,0 -40.911181,-16.50751 -40.911181,-36.87056 0,-20.363055 18.316559,-36.87057 40.911181,-36.87057 22.59462,0 40.91118,16.507515 40.91118,36.87057 z"
         transform="matrix(0.16032923,0,0,-0.17789956,94.398839,1064.9107)" />
      <path
         sodipodi:type="arc"
         style="fill:#ffffff;stroke:#ffffff"
         id="path4621-5-2-0"
         sodipodi:cx="115.66247"
         sodipodi:cy="107.89577"
         sodipodi:rx="40.911179"
         sodipodi:ry="36.870567"
         d="m 156.57365,107.89577 c 0,20.36305 -18.31656,36.87056 -40.91118,36.87056 -22.594622,0 -40.911181,-16.50751 -40.911181,-36.87056 0,-20.363055 18.316559,-36.87057 40.911181,-36.87057 22.59462,0 40.91118,16.507515 40.91118,36.87057 z"
         transform="matrix(0.16032923,0,0,-0.17789956,129.83191,1064.9107)" />
      <path
         sodipodi:type="arc"
         style="fill:#ffffff;stroke:#ffffff"
         id="path4621-5-2-9"
         sodipodi:cx="115.66247"
         sodipodi:cy="107.89577"
         sodipodi:rx="40.911179"
         sodipodi:ry="36.870567"
         d="m 156.57365,107.89577 c 0,20.36305 -18.31656,36.87056 -40.91118,36.87056 -22.594622,0 -40.911181,-16.50751 -40.911181,-36.87056 0,-20.363055 18.316559,-36.87057 40.911181,-36.87057 22.59462,0 40.91118,16.507515 40.91118,36.87057 z"
         transform="matrix(0.16032923,0,0,-0.17789956,165.26498,1064.9107)" />
      <path
         sodipodi:type="arc"
         style="fill:#ffffff;stroke:#ffffff"
         id="path4621-5-2-48"
         sodipodi:cx="115.66247"
         sodipodi:cy="107.89577"
         sodipodi:rx="40.911179"
         sodipodi:ry="36.870567"
         d="m 156.57365,107.89577 c 0,20.36305 -18.31656,36.87056 -40.91118,36.87056 -22.594622,0 -40.911181,-16.50751 -40.911181,-36.87056 0,-20.363055 18.316559,-36.87057 40.911181,-36.87057 22.59462,0 40.91118,16.507515 40.91118,36.87057 z"
         transform="matrix(0.16032923,0,0,-0.17789956,-11.900374,1029.4776)" />
      <path
         sodipodi:type="arc"
         style="fill:#ffffff;stroke:#ffffff"
         id="path4621-5-2-1-8"
         sodipodi:cx="115.66247"
         sodipodi:cy="107.89577"
         sodipodi:rx="40.911179"
         sodipodi:ry="36.870567"
         d="m 156.57365,107.89577 c 0,20.36305 -18.31656,36.87056 -40.91118,36.87056 -22.594622,0 -40.911181,-16.50751 -40.911181,-36.87056 0,-20.363055 18.316559,-36.87057 40.911181,-36.87057 22.59462,0 40.91118,16.507515 40.91118,36.87057 z"
         transform="matrix(0.16032923,0,0,-0.17789956,23.532696,1029.4776)" />
      <path
         sodipodi:type="arc"
         style="fill:#ffffff;stroke:#ffffff"
         id="path4621-5-2-7-2"
         sodipodi:cx="115.66247"
         sodipodi:cy="107.89577"
         sodipodi:rx="40.911179"
         sodipodi:ry="36.870567"
         d="m 156.57365,107.89577 c 0,20.36305 -18.31656,36.87056 -40.91118,36.87056 -22.594622,0 -40.911181,-16.50751 -40.911181,-36.87056 0,-20.363055 18.316559,-36.87057 40.911181,-36.87057 22.59462,0 40.91118,16.507515 40.91118,36.87057 z"
         transform="matrix(0.16032923,0,0,-0.17789956,58.965767,1029.4776)" />
      <path
         sodipodi:type="arc"
         style="fill:#ffffff;stroke:#ffffff"
         id="path4621-5-2-4-4"
         sodipodi:cx="115.66247"
         sodipodi:cy="107.89577"
         sodipodi:rx="40.911179"
         sodipodi:ry="36.870567"
         d="m 156.57365,107.89577 c 0,20.36305 -18.31656,36.87056 -40.91118,36.87056 -22.594622,0 -40.911181,-16.50751 -40.911181,-36.87056 0,-20.363055 18.316559,-36.87057 40.911181,-36.87057 22.59462,0 40.91118,16.507515 40.91118,36.87057 z"
         transform="matrix(0.16032923,0,0,-0.17789956,94.398838,1029.4776)" />
      <path
         sodipodi:type="arc"
         style="fill:#ffffff;stroke:#ffffff"
         id="path4621-5-2-0-5"
         sodipodi:cx="115.66247"
         sodipodi:cy="107.89577"
         sodipodi:rx="40.911179"
         sodipodi:ry="36.870567"
         d="m 156.57365,107.89577 c 0,20.36305 -18.31656,36.87056 -40.91118,36.87056 -22.594622,0 -40.911181,-16.50751 -40.911181,-36.87056 0,-20.363055 18.316559,-36.87057 40.911181,-36.87057 22.59462,0 40.91118,16.507515 40.91118,36.87057 z"
         transform="matrix(0.16032923,0,0,-0.17789956,129.83191,1029.4776)" />
      <path
         sodipodi:type="arc"
         style="fill:#ffffff;stroke:#ffffff"
         id="path4621-5-2-9-5"
         sodipodi:cx="115.66247"
         sodipodi:cy="107.89577"
         sodipodi:rx="40.911179"
         sodipodi:ry="36.870567"
         d="m 156.57365,107.89577 c 0,20.36305 -18.31656,36.87056 -40.91118,36.87056 -22.594622,0 -40.911181,-16.50751 -40.911181,-36.87056 0,-20.363055 18.316559,-36.87057 40.911181,-36.87057 22.59462,0 40.91118,16.507515 40.91118,36.87057 z"
         transform="matrix(0.16032923,0,0,-0.17789956,165.26498,1029.4776)" />
      <path
         sodipodi:type="arc"
         style="fill:#ffffff;stroke:#ffffff"
         id="path4621-5-2-17"
         sodipodi:cx="115.66247"
         sodipodi:cy="107.89577"
         sodipodi:rx="40.911179"
         sodipodi:ry="36.870567"
         d="m 156.57365,107.89577 c 0,20.36305 -18.31656,36.87056 -40.91118,36.87056 -22.594622,0 -40.911181,-16.50751 -40.911181,-36.87056 0,-20.363055 18.316559,-36.87057 40.911181,-36.87057 22.59462,0 40.91118,16.507515 40.91118,36.87057 z"
         transform="matrix(0.16032923,0,0,-0.17789956,-11.900374,994.04455)" />
      <path
         sodipodi:type="arc"
         style="fill:#ffffff;stroke:#ffffff"
         id="path4621-5-2-1-1"
         sodipodi:cx="115.66247"
         sodipodi:cy="107.89577"
         sodipodi:rx="40.911179"
         sodipodi:ry="36.870567"
         d="m 156.57365,107.89577 c 0,20.36305 -18.31656,36.87056 -40.91118,36.87056 -22.594622,0 -40.911181,-16.50751 -40.911181,-36.87056 0,-20.363055 18.316559,-36.87057 40.911181,-36.87057 22.59462,0 40.91118,16.507515 40.91118,36.87057 z"
         transform="matrix(0.16032923,0,0,-0.17789956,23.532696,994.04455)" />
      <path
         sodipodi:type="arc"
         style="fill:#ffffff;stroke:#ffffff"
         id="path4621-5-2-7-1"
         sodipodi:cx="115.66247"
         sodipodi:cy="107.89577"
         sodipodi:rx="40.911179"
         sodipodi:ry="36.870567"
         d="m 156.57365,107.89577 c 0,20.36305 -18.31656,36.87056 -40.91118,36.87056 -22.594622,0 -40.911181,-16.50751 -40.911181,-36.87056 0,-20.363055 18.316559,-36.87057 40.911181,-36.87057 22.59462,0 40.91118,16.507515 40.91118,36.87057 z"
         transform="matrix(0.16032923,0,0,-0.17789956,58.965768,994.04455)" />
      <path
         sodipodi:type="arc"
         style="fill:#ffffff;stroke:#ffffff"
         id="path4621-5-2-4-5"
         sodipodi:cx="115.66247"
         sodipodi:cy="107.89577"
         sodipodi:rx="40.911179"
         sodipodi:ry="36.870567"
         d="m 156.57365,107.89577 c 0,20.36305 -18.31656,36.87056 -40.91118,36.87056 -22.594622,0 -40.911181,-16.50751 -40.911181,-36.87056 0,-20.363055 18.316559,-36.87057 40.911181,-36.87057 22.59462,0 40.91118,16.507515 40.91118,36.87057 z"
         transform="matrix(0.16032923,0,0,-0.17789956,94.398838,994.04455)" />
      <path
         sodipodi:type="arc"
         style="fill:#ffffff;stroke:#ffffff"
         id="path4621-5-2-0-2"
         sodipodi:cx="115.66247"
         sodipodi:cy="107.89577"
         sodipodi:rx="40.911179"
         sodipodi:ry="36.870567"
         d="m 156.57365,107.89577 c 0,20.36305 -18.31656,36.87056 -40.91118,36.87056 -22.594622,0 -40.911181,-16.50751 -40.911181,-36.87056 0,-20.363055 18.316559,-36.87057 40.911181,-36.87057 22.59462,0 40.91118,16.507515 40.91118,36.87057 z"
         transform="matrix(0.16032923,0,0,-0.17789956,129.83191,994.04455)" />
      <path
         sodipodi:type="arc"
         style="fill:#ffffff;stroke:#ffffff"
         id="path4621-5-2-9-7"
         sodipodi:cx="115.66247"
         sodipodi:cy="107.89577"
         sodipodi:rx="40.911179"
         sodipodi:ry="36.870567"
         d="m 156.57365,107.89577 c 0,20.36305 -18.31656,36.87056 -40.91118,36.87056 -22.594622,0 -40.911181,-16.50751 -40.911181,-36.87056 0,-20.363055 18.316559,-36.87057 40.911181,-36.87057 22.59462,0 40.91118,16.507515 40.91118,36.87057 z"
         transform="matrix(0.16032923,0,0,-0.17789956,165.26499,994.04455)" />
      <path
         sodipodi:type="arc"
         style="fill:#ffffff;stroke:#ffffff"
         id="path4621-5-2-6"
         sodipodi:cx="115.66247"
         sodipodi:cy="107.89577"
         sodipodi:rx="40.911179"
         sodipodi:ry="36.870567"
         d="m 156.57365,107.89577 c 0,20.36305 -18.31656,36.87056 -40.91118,36.87056 -22.594622,0 -40.911181,-16.50751 -40.911181,-36.87056 0,-20.363055 18.316559,-36.87057 40.911181,-36.87057 22.59462,0 40.91118,16.507515 40.91118,36.87057 z"
         transform="matrix(0.16032923,0,0,-0.17789956,-11.900374,958.61148)" />
      <path
         sodipodi:type="arc"
         style="fill:#ffffff;stroke:#ffffff"
         id="path4621-5-2-1-14"
         sodipodi:cx="115.66247"
         sodipodi:cy="107.89577"
         sodipodi:rx="40.911179"
         sodipodi:ry="36.870567"
         d="m 156.57365,107.89577 c 0,20.36305 -18.31656,36.87056 -40.91118,36.87056 -22.594622,0 -40.911181,-16.50751 -40.911181,-36.87056 0,-20.363055 18.316559,-36.87057 40.911181,-36.87057 22.59462,0 40.91118,16.507515 40.91118,36.87057 z"
         transform="matrix(0.16032923,0,0,-0.17789956,23.532696,958.61148)" />
      <path
         sodipodi:type="arc"
         style="fill:#ffffff;stroke:#ffffff"
         id="path4621-5-2-7-23"
         sodipodi:cx="115.66247"
         sodipodi:cy="107.89577"
         sodipodi:rx="40.911179"
         sodipodi:ry="36.870567"
         d="m 156.57365,107.89577 c 0,20.36305 -18.31656,36.87056 -40.91118,36.87056 -22.594622,0 -40.911181,-16.50751 -40.911181,-36.87056 0,-20.363055 18.316559,-36.87057 40.911181,-36.87057 22.59462,0 40.91118,16.507515 40.91118,36.87057 z"
         transform="matrix(0.16032923,0,0,-0.17789956,58.965767,958.61148)" />
      <path
         sodipodi:type="arc"
         style="fill:#ffffff;stroke:#ffffff"
         id="path4621-5-2-4-2"
         sodipodi:cx="115.66247"
         sodipodi:cy="107.89577"
         sodipodi:rx="40.911179"
         sodipodi:ry="36.870567"
         d="m 156.57365,107.89577 c 0,20.36305 -18.31656,36.87056 -40.91118,36.87056 -22.594622,0 -40.911181,-16.50751 -40.911181,-36.87056 0,-20.363055 18.316559,-36.87057 40.911181,-36.87057 22.59462,0 40.91118,16.507515 40.91118,36.87057 z"
         transform="matrix(0.16032923,0,0,-0.17789956,94.398838,958.61148)" />
      <path
         sodipodi:type="arc"
         style="fill:#ffffff;stroke:#ffffff"
         id="path4621-5-2-0-21"
         sodipodi:cx="115.66247"
         sodipodi:cy="107.89577"
         sodipodi:rx="40.911179"
         sodipodi:ry="36.870567"
         d="m 156.57365,107.89577 c 0,20.36305 -18.31656,36.87056 -40.91118,36.87056 -22.594622,0 -40.911181,-16.50751 -40.911181,-36.87056 0,-20.363055 18.316559,-36.87057 40.911181,-36.87057 22.59462,0 40.91118,16.507515 40.91118,36.87057 z"
         transform="matrix(0.16032923,0,0,-0.17789956,129.83191,958.61148)" />
      <path
         sodipodi:type="arc"
         style="fill:#ffffff;stroke:#ffffff"
         id="path4621-5-2-9-6"
         sodipodi:cx="115.66247"
         sodipodi:cy="107.89577"
         sodipodi:rx="40.911179"
         sodipodi:ry="36.870567"
         d="m 156.57365,107.89577 c 0,20.36305 -18.31656,36.87056 -40.91118,36.87056 -22.594622,0 -40.911181,-16.50751 -40.911181,-36.87056 0,-20.363055 18.316559,-36.87057 40.911181,-36.87057 22.59462,0 40.91118,16.507515 40.91118,36.87057 z"
         transform="matrix(0.16032923,0,0,-0.17789956,165.26498,958.61148)" />
      <path
         sodipodi:type="arc"
         style="fill:#ffffff;stroke:#ffffff"
         id="path4621-5-2-8"
         sodipodi:cx="115.66247"
         sodipodi:cy="107.89577"
         sodipodi:rx="40.911179"
         sodipodi:ry="36.870567"
         d="m 156.57365,107.89577 c 0,20.36305 -18.31656,36.87056 -40.91118,36.87056 -22.594622,0 -40.911181,-16.50751 -40.911181,-36.87056 0,-20.363055 18.316559,-36.87057 40.911181,-36.87057 22.59462,0 40.91118,16.507515 40.91118,36.87057 z"
         transform="matrix(0.16032923,0,0,-0.17789956,5.8161618,1047.1942)" />
      <path
         sodipodi:type="arc"
         style="fill:#ffffff;stroke:#ffffff"
         id="path4621-5-2-1-5"
         sodipodi:cx="115.66247"
         sodipodi:cy="107.89577"
         sodipodi:rx="40.911179"
         sodipodi:ry="36.870567"
         d="m 156.57365,107.89577 c 0,20.36305 -18.31656,36.87056 -40.91118,36.87056 -22.594622,0 -40.911181,-16.50751 -40.911181,-36.87056 0,-20.363055 18.316559,-36.87057 40.911181,-36.87057 22.59462,0 40.91118,16.507515 40.91118,36.87057 z"
         transform="matrix(0.16032923,0,0,-0.17789956,41.249228,1047.1942)" />
      <path
         sodipodi:type="arc"
         style="fill:#ffffff;stroke:#ffffff"
         id="path4621-5-2-7-7"
         sodipodi:cx="115.66247"
         sodipodi:cy="107.89577"
         sodipodi:rx="40.911179"
         sodipodi:ry="36.870567"
         d="m 156.57365,107.89577 c 0,20.36305 -18.31656,36.87056 -40.91118,36.87056 -22.594622,0 -40.911181,-16.50751 -40.911181,-36.87056 0,-20.363055 18.316559,-36.87057 40.911181,-36.87057 22.59462,0 40.91118,16.507515 40.91118,36.87057 z"
         transform="matrix(0.16032923,0,0,-0.17789956,76.682299,1047.1942)" />
      <path
         sodipodi:type="arc"
         style="fill:#ffffff;stroke:#ffffff"
         id="path4621-5-2-4-6"
         sodipodi:cx="115.66247"
         sodipodi:cy="107.89577"
         sodipodi:rx="40.911179"
         sodipodi:ry="36.870567"
         d="m 156.57365,107.89577 c 0,20.36305 -18.31656,36.87056 -40.91118,36.87056 -22.594622,0 -40.911181,-16.50751 -40.911181,-36.87056 0,-20.363055 18.316559,-36.87057 40.911181,-36.87057 22.59462,0 40.91118,16.507515 40.91118,36.87057 z"
         transform="matrix(0.16032923,0,0,-0.17789956,112.11537,1047.1942)" />
      <path
         sodipodi:type="arc"
         style="fill:#ffffff;stroke:#ffffff"
         id="path4621-5-2-0-1"
         sodipodi:cx="115.66247"
         sodipodi:cy="107.89577"
         sodipodi:rx="40.911179"
         sodipodi:ry="36.870567"
         d="m 156.57365,107.89577 c 0,20.36305 -18.31656,36.87056 -40.91118,36.87056 -22.594622,0 -40.911181,-16.50751 -40.911181,-36.87056 0,-20.363055 18.316559,-36.87057 40.911181,-36.87057 22.59462,0 40.91118,16.507515 40.91118,36.87057 z"
         transform="matrix(0.16032923,0,0,-0.17789956,147.54844,1047.1942)" />
      <path
         sodipodi:type="arc"
         style="fill:#ffffff;stroke:#ffffff"
         id="path4621-5-2-89"
         sodipodi:cx="115.66247"
         sodipodi:cy="107.89577"
         sodipodi:rx="40.911179"
         sodipodi:ry="36.870567"
         d="m 156.57365,107.89577 c 0,20.36305 -18.31656,36.87056 -40.91118,36.87056 -22.594622,0 -40.911181,-16.50751 -40.911181,-36.87056 0,-20.363055 18.316559,-36.87057 40.911181,-36.87057 22.59462,0 40.91118,16.507515 40.91118,36.87057 z"
         transform="matrix(0.16032923,0,0,-0.17789956,5.8161618,1011.7611)" />
      <path
         sodipodi:type="arc"
         style="fill:#ffffff;stroke:#ffffff"
         id="path4621-5-2-1-2"
         sodipodi:cx="115.66247"
         sodipodi:cy="107.89577"
         sodipodi:rx="40.911179"
         sodipodi:ry="36.870567"
         d="m 156.57365,107.89577 c 0,20.36305 -18.31656,36.87056 -40.91118,36.87056 -22.594622,0 -40.911181,-16.50751 -40.911181,-36.87056 0,-20.363055 18.316559,-36.87057 40.911181,-36.87057 22.59462,0 40.91118,16.507515 40.91118,36.87057 z"
         transform="matrix(0.16032923,0,0,-0.17789956,41.249232,1011.7611)" />
      <path
         sodipodi:type="arc"
         style="fill:#ffffff;stroke:#ffffff"
         id="path4621-5-2-7-79"
         sodipodi:cx="115.66247"
         sodipodi:cy="107.89577"
         sodipodi:rx="40.911179"
         sodipodi:ry="36.870567"
         d="m 156.57365,107.89577 c 0,20.36305 -18.31656,36.87056 -40.91118,36.87056 -22.594622,0 -40.911181,-16.50751 -40.911181,-36.87056 0,-20.363055 18.316559,-36.87057 40.911181,-36.87057 22.59462,0 40.91118,16.507515 40.91118,36.87057 z"
         transform="matrix(0.16032923,0,0,-0.17789956,76.682303,1011.7611)" />
      <path
         sodipodi:type="arc"
         style="fill:#ffffff;stroke:#ffffff"
         id="path4621-5-2-4-54"
         sodipodi:cx="115.66247"
         sodipodi:cy="107.89577"
         sodipodi:rx="40.911179"
         sodipodi:ry="36.870567"
         d="m 156.57365,107.89577 c 0,20.36305 -18.31656,36.87056 -40.91118,36.87056 -22.594622,0 -40.911181,-16.50751 -40.911181,-36.87056 0,-20.363055 18.316559,-36.87057 40.911181,-36.87057 22.59462,0 40.91118,16.507515 40.91118,36.87057 z"
         transform="matrix(0.16032923,0,0,-0.17789956,112.11537,1011.7611)" />
      <path
         sodipodi:type="arc"
         style="fill:#ffffff;stroke:#ffffff"
         id="path4621-5-2-0-3"
         sodipodi:cx="115.66247"
         sodipodi:cy="107.89577"
         sodipodi:rx="40.911179"
         sodipodi:ry="36.870567"
         d="m 156.57365,107.89577 c 0,20.36305 -18.31656,36.87056 -40.91118,36.87056 -22.594622,0 -40.911181,-16.50751 -40.911181,-36.87056 0,-20.363055 18.316559,-36.87057 40.911181,-36.87057 22.59462,0 40.91118,16.507515 40.91118,36.87057 z"
         transform="matrix(0.16032923,0,0,-0.17789956,147.54844,1011.7611)" />
      <path
         sodipodi:type="arc"
         style="fill:#ffffff;stroke:#ffffff"
         id="path4621-5-2-12"
         sodipodi:cx="115.66247"
         sodipodi:cy="107.89577"
         sodipodi:rx="40.911179"
         sodipodi:ry="36.870567"
         d="m 156.57365,107.89577 c 0,20.36305 -18.31656,36.87056 -40.91118,36.87056 -22.594622,0 -40.911181,-16.50751 -40.911181,-36.87056 0,-20.363055 18.316559,-36.87057 40.911181,-36.87057 22.59462,0 40.91118,16.507515 40.91118,36.87057 z"
         transform="matrix(0.16032923,0,0,-0.17789956,5.8161618,976.32801)" />
      <path
         sodipodi:type="arc"
         style="fill:#ffffff;stroke:#ffffff"
         id="path4621-5-2-1-3"
         sodipodi:cx="115.66247"
         sodipodi:cy="107.89577"
         sodipodi:rx="40.911179"
         sodipodi:ry="36.870567"
         d="m 156.57365,107.89577 c 0,20.36305 -18.31656,36.87056 -40.91118,36.87056 -22.594622,0 -40.911181,-16.50751 -40.911181,-36.87056 0,-20.363055 18.316559,-36.87057 40.911181,-36.87057 22.59462,0 40.91118,16.507515 40.91118,36.87057 z"
         transform="matrix(0.16032923,0,0,-0.17789956,41.249232,976.32801)" />
      <path
         sodipodi:type="arc"
         style="fill:#ffffff;stroke:#ffffff"
         id="path4621-5-2-7-3"
         sodipodi:cx="115.66247"
         sodipodi:cy="107.89577"
         sodipodi:rx="40.911179"
         sodipodi:ry="36.870567"
         d="m 156.57365,107.89577 c 0,20.36305 -18.31656,36.87056 -40.91118,36.87056 -22.594622,0 -40.911181,-16.50751 -40.911181,-36.87056 0,-20.363055 18.316559,-36.87057 40.911181,-36.87057 22.59462,0 40.91118,16.507515 40.91118,36.87057 z"
         transform="matrix(0.16032923,0,0,-0.17789956,76.682303,976.32801)" />
      <path
         sodipodi:type="arc"
         style="fill:#ffffff;stroke:#ffffff"
         id="path4621-5-2-4-41"
         sodipodi:cx="115.66247"
         sodipodi:cy="107.89577"
         sodipodi:rx="40.911179"
         sodipodi:ry="36.870567"
         d="m 156.57365,107.89577 c 0,20.36305 -18.31656,36.87056 -40.91118,36.87056 -22.594622,0 -40.911181,-16.50751 -40.911181,-36.87056 0,-20.363055 18.316559,-36.87057 40.911181,-36.87057 22.59462,0 40.91118,16.507515 40.91118,36.87057 z"
         transform="matrix(0.16032923,0,0,-0.17789956,112.11537,976.32801)" />
      <path
         sodipodi:type="arc"
         style="fill:#ffffff;stroke:#ffffff"
         id="path4621-5-2-0-13"
         sodipodi:cx="115.66247"
         sodipodi:cy="107.89577"
         sodipodi:rx="40.911179"
         sodipodi:ry="36.870567"
         d="m 156.57365,107.89577 c 0,20.36305 -18.31656,36.87056 -40.91118,36.87056 -22.594622,0 -40.911181,-16.50751 -40.911181,-36.87056 0,-20.363055 18.316559,-36.87057 40.911181,-36.87057 22.59462,0 40.91118,16.507515 40.91118,36.87057 z"
         transform="matrix(0.16032923,0,0,-0.17789956,147.54844,976.32801)" />
      <path
         sodipodi:type="arc"
         style="fill:#ffffff;stroke:#ffffff"
         id="path4621-5-2-87"
         sodipodi:cx="115.66247"
         sodipodi:cy="107.89577"
         sodipodi:rx="40.911179"
         sodipodi:ry="36.870567"
         d="m 156.57365,107.89577 c 0,20.36305 -18.31656,36.87056 -40.91118,36.87056 -22.594622,0 -40.911181,-16.50751 -40.911181,-36.87056 0,-20.363055 18.316559,-36.87057 40.911181,-36.87057 22.59462,0 40.91118,16.507515 40.91118,36.87057 z"
         transform="matrix(0.16032923,0,0,-0.17789956,5.8161618,940.89494)" />
      <path
         sodipodi:type="arc"
         style="fill:#ffffff;stroke:#ffffff"
         id="path4621-5-2-1-4"
         sodipodi:cx="115.66247"
         sodipodi:cy="107.89577"
         sodipodi:rx="40.911179"
         sodipodi:ry="36.870567"
         d="m 156.57365,107.89577 c 0,20.36305 -18.31656,36.87056 -40.91118,36.87056 -22.594622,0 -40.911181,-16.50751 -40.911181,-36.87056 0,-20.363055 18.316559,-36.87057 40.911181,-36.87057 22.59462,0 40.91118,16.507515 40.91118,36.87057 z"
         transform="matrix(0.16032923,0,0,-0.17789956,41.249232,940.89494)" />
      <path
         sodipodi:type="arc"
         style="fill:#ffffff;stroke:#ffffff"
         id="path4621-5-2-7-27"
         sodipodi:cx="115.66247"
         sodipodi:cy="107.89577"
         sodipodi:rx="40.911179"
         sodipodi:ry="36.870567"
         d="m 156.57365,107.89577 c 0,20.36305 -18.31656,36.87056 -40.91118,36.87056 -22.594622,0 -40.911181,-16.50751 -40.911181,-36.87056 0,-20.363055 18.316559,-36.87057 40.911181,-36.87057 22.59462,0 40.91118,16.507515 40.91118,36.87057 z"
         transform="matrix(0.16032923,0,0,-0.17789956,76.682303,940.89494)" />
      <path
         sodipodi:type="arc"
         style="fill:#ffffff;stroke:#ffffff"
         id="path4621-5-2-4-7"
         sodipodi:cx="115.66247"
         sodipodi:cy="107.89577"
         sodipodi:rx="40.911179"
         sodipodi:ry="36.870567"
         d="m 156.57365,107.89577 c 0,20.36305 -18.31656,36.87056 -40.91118,36.87056 -22.594622,0 -40.911181,-16.50751 -40.911181,-36.87056 0,-20.363055 18.316559,-36.87057 40.911181,-36.87057 22.59462,0 40.91118,16.507515 40.91118,36.87057 z"
         transform="matrix(0.16032923,0,0,-0.17789956,112.11537,940.89494)" />
      <path
         sodipodi:type="arc"
         style="fill:#ffffff;stroke:#ffffff"
         id="path4621-5-2-0-9"
         sodipodi:cx="115.66247"
         sodipodi:cy="107.89577"
         sodipodi:rx="40.911179"
         sodipodi:ry="36.870567"
         d="m 156.57365,107.89577 c 0,20.36305 -18.31656,36.87056 -40.91118,36.87056 -22.594622,0 -40.911181,-16.50751 -40.911181,-36.87056 0,-20.363055 18.316559,-36.87057 40.911181,-36.87057 22.59462,0 40.91118,16.507515 40.91118,36.87057 z"
         transform="matrix(0.16032923,0,0,-0.17789956,147.54845,940.89494)" />
    </g>
  </g>
  <g
     inkscape:groupmode="layer"
     id="layer3"
     inkscape:label="Info"
     style="display:inline"
     sodipodi:insensitive="true">
    <path
       style="fill:none;stroke:#ffffff;stroke-width:5;stroke-linecap:butt;stroke-linejoin:miter;stroke-miterlimit:4;stroke-opacity:1;stroke-dasharray:none;marker-start:url(#Arrow1Mstarta);marker-mid:none"
       d="m 73.684426,81.744418 0,71.004992"
       id="path4072"
       inkscape:connector-curvature="0" />
    <text
       xml:space="preserve"
       style="font-size:40px;font-style:normal;font-weight:normal;line-height:125%;letter-spacing:0px;word-spacing:0px;fill:#000000;fill-opacity:1;stroke:none;font-family:Sans"
       x="86.794334"
       y="103.6395"
       id="text5512"
       sodipodi:linespacing="125%"><tspan
         sodipodi:role="line"
         id="tspan5514"
         x="86.794334"
         y="103.6395"
         style="font-size:24px;fill:#ffffff;fill-opacity:1">   Up</tspan><tspan
         sodipodi:role="line"
         x="86.794334"
         y="133.6395"
         style="font-size:24px;fill:#ffffff;fill-opacity:1"
         id="tspan3883"> 5mm</tspan></text>
  </g>
</svg>
